<?xml version="1.0" encoding="UTF-8" standalone="no"?>
<svg
   xmlns:dc="http://purl.org/dc/elements/1.1/"
   xmlns:cc="http://creativecommons.org/ns#"
   xmlns:rdf="http://www.w3.org/1999/02/22-rdf-syntax-ns#"
   xmlns:svg="http://www.w3.org/2000/svg"
   xmlns="http://www.w3.org/2000/svg"
   xmlns:xlink="http://www.w3.org/1999/xlink"
   xmlns:sodipodi="http://sodipodi.sourceforge.net/DTD/sodipodi-0.dtd"
   xmlns:inkscape="http://www.inkscape.org/namespaces/inkscape"
   width="76.968269mm"
   height="76.621346mm"
   viewBox="0 0 76.968269 76.621346"
   version="1.1"
   id="svg1419"
   sodipodi:docname="filter.svg"
   inkscape:version="1.0.2-2 (e86c870879, 2021-01-15)"
   inkscape:export-filename="C:\Users\Jeroe\Documents\TU Delft\BEP report\Resources\Figures\filter.png"
   inkscape:export-xdpi="200"
   inkscape:export-ydpi="200">
  <defs
     id="defs1413">
    <g
       id="g5893">
      <symbol
         overflow="visible"
         id="symbol9746">
        <path
           style="stroke:none"
           d=""
           id="path9945" />
      </symbol>
      <symbol
         overflow="visible"
         id="symbol8275">
        <path
           style="stroke:none"
           d="M 6.75,-1.609375 H 6.5 c -0.046875,0.25 -0.09375,0.484375 -0.1875,0.71875 -0.046875,0.15625 -0.078125,0.25 -0.65625,0.25 H 4.859375 C 5,-1.203125 5.296875,-1.6875 5.75,-2.34375 c 0.46875,-0.703125 0.875,-1.390625 0.875,-2.1875 0,-1.375 -1.34375,-2.5 -3.03125,-2.5 -1.703125,0 -3.03125,1.140625 -3.03125,2.5 0,0.796875 0.40625,1.484375 0.875,2.1875 0.4375,0.65625 0.75,1.140625 0.890625,1.703125 H 1.53125 C 0.953125,-0.640625 0.921875,-0.734375 0.875,-0.875 0.78125,-1.109375 0.734375,-1.359375 0.6875,-1.609375 h -0.25 L 0.765625,0 h 1.59375 c 0.21875,0 0.25,0 0.25,-0.203125 0,-0.703125 -0.3125,-1.578125 -0.53125,-2.21875 -0.21875,-0.578125 -0.5,-1.359375 -0.5,-2.109375 0,-1.59375 1.109375,-2.28125 2.015625,-2.28125 0.953125,0 2.015625,0.71875 2.015625,2.28125 0,0.75 -0.28125,1.5 -0.5625,2.3125 -0.15625,0.421875 -0.46875,1.328125 -0.46875,2.015625 C 4.578125,0 4.609375,0 4.828125,0 h 1.59375 z m 0,0"
           id="path9979" />
      </symbol>
      <symbol
         overflow="visible"
         id="symbol6601">
        <path
           style="stroke:none"
           d="M 2.75,-1.859375 V -2.4375 H 0.109375 v 0.578125 z m 0,0"
           id="path813" />
      </symbol>
      <symbol
         overflow="visible"
         id="symbol1750">
        <path
           style="stroke:none"
           d="m 3.296875,-3.984375 c 0.453125,0 0.515625,0.125 0.515625,0.53125 V -0.75 c 0,0.4375 -0.109375,0.4375 -0.765625,0.4375 V 0 c 0.328125,-0.015625 0.84375,-0.03125 1.09375,-0.03125 0.25,0 0.75,0.015625 1.109375,0.03125 v -0.3125 c -0.671875,0 -0.78125,0 -0.78125,-0.4375 v -3.671875 l -1.25,0.09375 C 3.0625,-4.3125 3.046875,-4.3125 3.046875,-4.3125 3.015625,-4.296875 3,-4.296875 2.859375,-4.296875 H 1.6875 v -1.125 c 0,-0.984375 0.859375,-1.390625 1.46875,-1.390625 0.296875,0 0.65625,0.109375 0.859375,0.328125 -0.40625,0.03125 -0.46875,0.296875 -0.46875,0.46875 C 3.546875,-5.6875 3.8125,-5.5625 4,-5.5625 c 0.234375,0 0.453125,-0.15625 0.453125,-0.453125 0,-0.59375 -0.546875,-1.015625 -1.28125,-1.015625 C 2.25,-7.03125 1.0625,-6.515625 1.0625,-5.4375 v 1.140625 H 0.265625 v 0.3125 H 1.0625 V -0.75 c 0,0.4375 -0.109375,0.4375 -0.78125,0.4375 V 0 C 0.609375,-0.015625 1.140625,-0.03125 1.390625,-0.03125 1.640625,-0.03125 2.125,-0.015625 2.5,0 v -0.3125 c -0.671875,0 -0.78125,0 -0.78125,-0.4375 v -3.234375 z m 0,0"
           id="path2427" />
      </symbol>
      <symbol
         overflow="visible"
         id="symbol5498">
        <path
           style="stroke:none"
           d="M 1.765625,-6.921875 0.328125,-6.8125 V -6.5 c 0.703125,0 0.78125,0.0625 0.78125,0.5625 V -0.75 c 0,0.4375 -0.109375,0.4375 -0.78125,0.4375 V 0 C 0.65625,-0.015625 1.1875,-0.03125 1.4375,-0.03125 c 0.25,0 0.734375,0.015625 1.109375,0.03125 v -0.3125 c -0.671875,0 -0.78125,0 -0.78125,-0.4375 z m 0,0"
           id="path8601" />
      </symbol>
      <symbol
         overflow="visible"
         id="symbol1901">
        <path
           style="stroke:none"
           d="m 1.71875,-3.984375 h 1.4375 v -0.3125 H 1.71875 V -6.125 h -0.25 c 0,0.8125 -0.296875,1.875 -1.28125,1.921875 v 0.21875 h 0.84375 v 2.75 c 0,1.21875 0.9375,1.34375 1.296875,1.34375 0.703125,0 0.984375,-0.703125 0.984375,-1.34375 v -0.5625 h -0.25 V -1.25 c 0,0.734375 -0.296875,1.109375 -0.671875,1.109375 -0.671875,0 -0.671875,-0.90625 -0.671875,-1.078125 z m 0,0"
           id="path4286" />
      </symbol>
      <symbol
         overflow="visible"
         id="symbol564">
        <path
           style="stroke:none"
           d="M 1.109375,-2.515625 C 1.171875,-4 2.015625,-4.25 2.359375,-4.25 c 1.015625,0 1.125,1.34375 1.125,1.734375 z m 0,0.21875 h 2.78125 c 0.21875,0 0.25,0 0.25,-0.21875 0,-0.984375 -0.546875,-1.953125 -1.78125,-1.953125 -1.15625,0 -2.078125,1.03125 -2.078125,2.28125 0,1.328125 1.046875,2.296875 2.1875,2.296875 C 3.6875,0.109375 4.140625,-1 4.140625,-1.1875 4.140625,-1.28125 4.0625,-1.3125 4,-1.3125 c -0.078125,0 -0.109375,0.0625 -0.125,0.140625 -0.34375,1.03125 -1.25,1.03125 -1.34375,1.03125 -0.5,0 -0.890625,-0.296875 -1.125,-0.671875 -0.296875,-0.46875 -0.296875,-1.125 -0.296875,-1.484375 z m 0,0"
           id="path2183" />
      </symbol>
      <symbol
         overflow="visible"
         id="symbol4174">
        <path
           style="stroke:none"
           d="M 1.671875,-3.3125 V -4.40625 L 0.28125,-4.296875 v 0.3125 c 0.703125,0 0.78125,0.0625 0.78125,0.5625 V -0.75 c 0,0.4375 -0.109375,0.4375 -0.78125,0.4375 V 0 c 0.390625,-0.015625 0.859375,-0.03125 1.140625,-0.03125 0.390625,0 0.859375,0 1.265625,0.03125 V -0.3125 H 2.46875 c -0.734375,0 -0.75,-0.109375 -0.75,-0.46875 V -2.3125 c 0,-0.984375 0.421875,-1.875 1.171875,-1.875 0.0625,0 0.09375,0 0.109375,0.015625 -0.03125,0 -0.234375,0.125 -0.234375,0.390625 0,0.265625 0.21875,0.421875 0.4375,0.421875 0.171875,0 0.421875,-0.125 0.421875,-0.4375 0,-0.3125 -0.3125,-0.609375 -0.734375,-0.609375 -0.734375,0 -1.09375,0.671875 -1.21875,1.09375 z m 0,0"
           id="path5456" />
      </symbol>
    </g>
  </defs>
  <sodipodi:namedview
     id="base"
     pagecolor="#ffffff"
     bordercolor="#666666"
     borderopacity="1.0"
     inkscape:pageopacity="0.0"
     inkscape:pageshadow="2"
     inkscape:zoom="2.8"
     inkscape:cx="114.63689"
     inkscape:cy="65.921762"
     inkscape:document-units="mm"
     inkscape:current-layer="layer1"
     inkscape:document-rotation="0"
     showgrid="false"
     inkscape:window-width="3806"
     inkscape:window-height="2036"
     inkscape:window-x="6"
     inkscape:window-y="16"
     inkscape:window-maximized="0" />
  <metadata
     id="metadata1416">
    <rdf:RDF>
      <cc:Work
         rdf:about="">
        <dc:format>image/svg+xml</dc:format>
        <dc:type
           rdf:resource="http://purl.org/dc/dcmitype/StillImage" />
        <dc:title></dc:title>
      </cc:Work>
    </rdf:RDF>
  </metadata>
  <g
     inkscape:label="Layer 1"
     inkscape:groupmode="layer"
     id="layer1"
     transform="translate(-71.561414,-85.422617)">
    <path
       id="path899"
       style="fill:none;stroke:#000000;stroke-width:0.564999;stroke-miterlimit:4;stroke-dasharray:none;stroke-opacity:1"
       d="m 101.42438,99.266834 v -9.24078 H 91.224488 a 9.5911454,9.5911454 0 0 0 9.585462,9.26042 9.5911454,9.5911454 0 0 0 0.61443,-0.0196 z" />
    <path
       id="path899-7"
       style="fill:none;stroke:#000000;stroke-width:0.550457;stroke-miterlimit:4;stroke-dasharray:none;stroke-opacity:1"
       d="m 91.48229,111.90895 h 9.69498 v -9.22801 a 10.062554,8.6772761 0 0 0 -9.715586,8.67213 10.062554,8.6772761 0 0 0 0.02056,0.55588 z" />
    <path
       id="path899-7-0"
       style="fill:none;stroke:#000000;stroke-width:0.564999;stroke-miterlimit:4;stroke-dasharray:none;stroke-opacity:1"
       d="m 104.22565,89.892424 v 9.24078 h 10.19988 a 9.5911454,9.5911454 0 0 0 -9.58546,-9.26042 9.5911454,9.5911454 0 0 0 -0.61442,0.0196 z" />
    <path
       id="path899-7-9"
       style="fill:none;stroke:#000000;stroke-width:0.564999;stroke-miterlimit:4;stroke-dasharray:none;stroke-opacity:1"
       d="m 104.22565,111.78167 v -9.24078 h 10.19988 a 9.5911442,9.5911454 0 0 1 -9.58546,9.26042 9.5911442,9.5911454 0 0 1 -0.61442,-0.0196 z" />
    <rect
       style="fill:none;fill-opacity:1;stroke:#000000;stroke-width:0.210596;stroke-miterlimit:4;stroke-dasharray:none;stroke-dashoffset:0;stroke-opacity:1"
       id="rect1497"
       width="29.654505"
       height="12.215167"
       x="81.994896"
       y="149.7235" />
    <path
       id="path2238"
       style="fill:none;stroke:#000000;stroke-width:2.13543;stroke-linecap:butt;stroke-linejoin:miter;stroke-miterlimit:4;stroke-dasharray:none;stroke-opacity:1"
       d="m 384.58385,459.87194 110.39089,-10e-6"
       transform="scale(0.26458333)" />
    <path
       id="path2251"
       style="fill:none;stroke:#000000;stroke-width:2.13543;stroke-linecap:butt;stroke-linejoin:miter;stroke-miterlimit:4;stroke-dasharray:none;stroke-opacity:1"
       d="m 270.46834,459.87194 72.40448,1e-5"
       transform="scale(0.26458333)" />
    <path
       style="fill:none;stroke:#8c8c8c;stroke-width:0.264583;stroke-linecap:butt;stroke-linejoin:miter;stroke-miterlimit:4;stroke-dasharray:0.264583, 0.264583;stroke-dashoffset:0;stroke-opacity:1"
       d="m 78.911327,121.80809 17.382733,-10.03593 17.58129,10.15056"
       id="path2259" />
    <path
       style="fill:none;stroke:#666666;stroke-width:0.265;stroke-linecap:butt;stroke-linejoin:miter;stroke-miterlimit:4;stroke-dasharray:0.265, 0.265;stroke-dashoffset:0;stroke-opacity:1"
       d="M 96.294058,111.77216 84.102791,132.88805"
       id="path2261" />
    <path
       style="fill:none;stroke:#666666;stroke-width:0.265;stroke-linecap:butt;stroke-linejoin:miter;stroke-miterlimit:4;stroke-dasharray:0.265, 0.265;stroke-dashoffset:0;stroke-opacity:1"
       d="m 96.294058,111.77216 12.161702,21.06469"
       id="path2263" />
    <ellipse
       style="fill:#424242;fill-opacity:0.371508;stroke:none;stroke-width:0.2748;stroke-miterlimit:4;stroke-dasharray:none;stroke-dashoffset:0;stroke-opacity:1"
       id="path2267"
       cx="96.160423"
       cy="132.686"
       rx="13.353263"
       ry="3.0869195" />
    <path
       style="fill:none;stroke:#666666;stroke-width:0.264583;stroke-linecap:butt;stroke-linejoin:miter;stroke-miterlimit:4;stroke-dasharray:0.264583, 0.264583;stroke-dashoffset:0;stroke-opacity:1"
       d="M 108.45576,132.83685 96.294058,149.67093"
       id="path2271" />
    <path
       style="fill:none;stroke:#666666;stroke-width:0.264583;stroke-linecap:butt;stroke-linejoin:miter;stroke-miterlimit:4;stroke-dasharray:0.264583, 0.264583;stroke-dashoffset:0;stroke-opacity:1"
       d="m 84.102791,132.88805 12.191267,16.78288"
       id="path2273" />
    <g
       inkscape:label=""
       transform="matrix(0.62946754,0,0,0.62946754,60.990995,51.032133)"
       id="g2317">
      <g
         id="g3318">
        <g
           style="fill:#000000;fill-opacity:1"
           id="g2894">
          <use
             xlink:href="#symbol8275"
             x="91.925003"
             y="81.962997"
             id="use2876"
             width="100%"
             height="100%" />
          <use
             xlink:href="#symbol6601"
             x="99.119987"
             y="81.962997"
             id="use7817"
             width="100%"
             height="100%" />
          <use
             xlink:href="#symbol1750"
             x="102.44052"
             y="81.962997"
             id="use5998"
             width="100%"
             height="100%" />
          <use
             xlink:href="#symbol5498"
             x="107.97575"
             y="81.962997"
             id="use6184"
             width="100%"
             height="100%" />
          <use
             xlink:href="#symbol1901"
             x="110.74335"
             y="81.962997"
             id="use8766"
             width="100%"
             height="100%" />
          <use
             xlink:href="#symbol564"
             x="114.61781"
             y="81.962997"
             id="use2513"
             width="100%"
             height="100%" />
          <use
             xlink:href="#symbol4174"
             x="119.04519"
             y="81.962997"
             id="use3081"
             width="100%"
             height="100%" />
        </g>
      </g>
    </g>
    <text
       xml:space="preserve"
       style="font-size:5.64444px;line-height:1.25;font-family:'CMU Serif';-inkscape-font-specification:'CMU Serif, Normal';stroke-width:0.264583"
       x="118.41106"
       y="119.27687"
       id="text2350"><tspan
         sodipodi:role="line"
         id="tspan2348"
         x="118.41106"
         y="119.27687"
         style="font-size:5.64444px;stroke-width:0.264583">energy </tspan><tspan
         sodipodi:role="line"
         x="118.41106"
         y="126.33242"
         style="font-size:5.64444px;stroke-width:0.264583"
         id="tspan2352">selecting slit</tspan></text>
    <text
       xml:space="preserve"
       style="font-size:5.64444px;line-height:1.25;font-family:'CMU Serif';-inkscape-font-specification:'CMU Serif, Normal';stroke-width:0.264583"
       x="117.92857"
       y="134.18155"
       id="text2356"><tspan
         sodipodi:role="line"
         id="tspan2354"
         x="117.92857"
         y="134.18155"
         style="font-size:5.64444px;stroke-width:0.264583">lens</tspan></text>
    <text
       xml:space="preserve"
       style="font-size:5.64444px;line-height:1.25;font-family:'CMU Serif';-inkscape-font-specification:'CMU Serif, Normal';stroke-width:0.264583"
       x="96.357491"
       y="154.59227"
       id="text2360"><tspan
         sodipodi:role="line"
         id="tspan2358"
         x="96.357491"
         y="154.59227"
         style="font-size:5.64444px;text-align:center;text-anchor:middle;stroke-width:0.264583">CCD</tspan><tspan
         sodipodi:role="line"
         x="96.357491"
         y="161.64783"
         style="font-size:5.64444px;text-align:center;text-anchor:middle;stroke-width:0.264583"
         id="tspan2362">camera</tspan></text>
    <path
       style="fill:none;stroke:#000000;stroke-width:0.265;stroke-linecap:butt;stroke-linejoin:miter;stroke-miterlimit:4;stroke-dasharray:0.265, 0.265;stroke-dashoffset:0;stroke-opacity:1"
       d="m 96.19494,85.422617 v 5.386163 c 0,0 0.566965,3.874254 3.260045,3.921503 2.693075,0.04725 5.149925,0 5.149925,0 0,0 4.77195,-0.425225 4.77195,1.937126 0,2.362353 0.14174,6.756321 0.14174,6.756321 0,0 0.0472,4.34673 -2.45684,4.39398 -2.5041,0.0472 -6.80358,0 -6.80358,0 0,0 -4.006747,-0.40657 -3.964122,3.95445"
       id="path2364" />
  </g>
</svg>
