<?xml version="1.0" encoding="UTF-8" standalone="no"?>
<svg
   xmlns:dc="http://purl.org/dc/elements/1.1/"
   xmlns:cc="http://creativecommons.org/ns#"
   xmlns:rdf="http://www.w3.org/1999/02/22-rdf-syntax-ns#"
   xmlns:svg="http://www.w3.org/2000/svg"
   xmlns="http://www.w3.org/2000/svg"
   xmlns:xlink="http://www.w3.org/1999/xlink"
   xmlns:sodipodi="http://sodipodi.sourceforge.net/DTD/sodipodi-0.dtd"
   xmlns:inkscape="http://www.inkscape.org/namespaces/inkscape"
   width="210mm"
   height="297mm"
   viewBox="0 0 210 297"
   version="1.1"
   id="svg3744"
   sodipodi:docname="int-tech.svg"
   inkscape:version="1.0.2-2 (e86c870879, 2021-01-15)">
  <defs
     id="defs3738">
    <marker
       style="overflow:visible;"
       id="Arrow1Mend"
       refX="0.0"
       refY="0.0"
       orient="auto"
       inkscape:stockid="Arrow1Mend"
       inkscape:isstock="true">
      <path
         transform="scale(0.4) rotate(180) translate(10,0)"
         style="fill-rule:evenodd;stroke:#000000;stroke-width:1pt;stroke-opacity:0.4;fill:#000000;fill-opacity:0.4"
         d="M 0.0,0.0 L 5.0,-5.0 L -12.5,0.0 L 5.0,5.0 L 0.0,0.0 z "
         id="path94310" />
    </marker>
    <marker
       style="overflow:visible;"
       id="marker4724"
       refX="0.0"
       refY="0.0"
       orient="auto"
       inkscape:stockid="Arrow1Mend"
       inkscape:isstock="true">
      <path
         transform="scale(0.4) rotate(180) translate(10,0)"
         style="fill-rule:evenodd;stroke:#000000;stroke-width:1pt;stroke-opacity:1;fill:#000000;fill-opacity:1"
         d="M 0.0,0.0 L 5.0,-5.0 L -12.5,0.0 L 5.0,5.0 L 0.0,0.0 z "
         id="path4722" />
    </marker>
    <marker
       style="overflow:visible;"
       id="marker4708"
       refX="0.0"
       refY="0.0"
       orient="auto"
       inkscape:stockid="Arrow1Mend"
       inkscape:isstock="true">
      <path
         transform="scale(0.4) rotate(180) translate(10,0)"
         style="fill-rule:evenodd;stroke:#000000;stroke-width:1pt;stroke-opacity:1;fill:#000000;fill-opacity:1"
         d="M 0.0,0.0 L 5.0,-5.0 L -12.5,0.0 L 5.0,5.0 L 0.0,0.0 z "
         id="path4706" />
    </marker>
    <marker
       style="overflow:visible;"
       id="marker4512"
       refX="0.0"
       refY="0.0"
       orient="auto"
       inkscape:stockid="Arrow1Mend"
       inkscape:isstock="true">
      <path
         transform="scale(0.4) rotate(180) translate(10,0)"
         style="fill-rule:evenodd;stroke:#000000;stroke-width:1pt;stroke-opacity:1;fill:#000000;fill-opacity:1"
         d="M 0.0,0.0 L 5.0,-5.0 L -12.5,0.0 L 5.0,5.0 L 0.0,0.0 z "
         id="path4510" />
    </marker>
    <marker
       style="overflow:visible;"
       id="marker4440"
       refX="0.0"
       refY="0.0"
       orient="auto"
       inkscape:stockid="Arrow1Lend"
       inkscape:isstock="true">
      <path
         transform="scale(0.8) rotate(180) translate(12.5,0)"
         style="fill-rule:evenodd;stroke:#000000;stroke-width:1pt;stroke-opacity:1;fill:#000000;fill-opacity:1"
         d="M 0.0,0.0 L 5.0,-5.0 L -12.5,0.0 L 5.0,5.0 L 0.0,0.0 z "
         id="path4438" />
    </marker>
    <marker
       style="overflow:visible;"
       id="marker4430"
       refX="0.0"
       refY="0.0"
       orient="auto"
       inkscape:stockid="Arrow1Lend"
       inkscape:isstock="true">
      <path
         transform="scale(0.8) rotate(180) translate(12.5,0)"
         style="fill-rule:evenodd;stroke:#000000;stroke-width:1pt;stroke-opacity:0.4;fill:#000000;fill-opacity:0.4"
         d="M 0.0,0.0 L 5.0,-5.0 L -12.5,0.0 L 5.0,5.0 L 0.0,0.0 z "
         id="path4428" />
    </marker>
    <marker
       style="overflow:visible;"
       id="marker4408"
       refX="0.0"
       refY="0.0"
       orient="auto"
       inkscape:stockid="Arrow1Lend"
       inkscape:isstock="true">
      <path
         transform="scale(0.8) rotate(180) translate(12.5,0)"
         style="fill-rule:evenodd;stroke:#000000;stroke-width:1pt;stroke-opacity:1;fill:#000000;fill-opacity:1"
         d="M 0.0,0.0 L 5.0,-5.0 L -12.5,0.0 L 5.0,5.0 L 0.0,0.0 z "
         id="path4406" />
    </marker>
    <inkscape:perspective
       sodipodi:type="inkscape:persp3d"
       inkscape:vp_x="-121.68446 : 21.456257 : 0"
       inkscape:vp_y="0 : 430.99059 : 0"
       inkscape:vp_z="111.63038 : 40.63014 : 0"
       inkscape:persp3d-origin="83.657903 : 163.07101 : 1"
       id="perspective4307" />
    <g
       id="g2378">
      <symbol
         overflow="visible"
         id="symbol9639">
        <path
           style="stroke:none;"
           d=""
           id="path1211" />
      </symbol>
      <symbol
         overflow="visible"
         id="symbol3327">
        <path
           style="stroke:none;"
           d="M 3.015625 -3.15625 L 4.71875 -3.15625 C 6.125 -3.15625 7.515625 -4.1875 7.515625 -5.296875 C 7.515625 -6.078125 6.859375 -6.8125 5.546875 -6.8125 L 2.328125 -6.8125 C 2.140625 -6.8125 2.03125 -6.8125 2.03125 -6.625 C 2.03125 -6.5 2.109375 -6.5 2.3125 -6.5 C 2.4375 -6.5 2.625 -6.484375 2.734375 -6.484375 C 2.90625 -6.453125 2.953125 -6.4375 2.953125 -6.3125 C 2.953125 -6.28125 2.953125 -6.25 2.921875 -6.125 L 1.578125 -0.78125 C 1.484375 -0.390625 1.46875 -0.3125 0.671875 -0.3125 C 0.515625 -0.3125 0.40625 -0.3125 0.40625 -0.125 C 0.40625 0 0.515625 0 0.546875 0 C 0.828125 0 1.53125 -0.03125 1.8125 -0.03125 C 2.03125 -0.03125 2.25 -0.015625 2.453125 -0.015625 C 2.671875 -0.015625 2.890625 0 3.09375 0 C 3.171875 0 3.296875 0 3.296875 -0.203125 C 3.296875 -0.3125 3.203125 -0.3125 3.015625 -0.3125 C 2.65625 -0.3125 2.375 -0.3125 2.375 -0.484375 C 2.375 -0.546875 2.390625 -0.59375 2.40625 -0.65625 Z M 3.734375 -6.125 C 3.828125 -6.46875 3.84375 -6.5 4.28125 -6.5 L 5.234375 -6.5 C 6.0625 -6.5 6.59375 -6.234375 6.59375 -5.546875 C 6.59375 -5.15625 6.390625 -4.296875 6 -3.9375 C 5.5 -3.484375 4.90625 -3.40625 4.46875 -3.40625 L 3.0625 -3.40625 Z M 3.734375 -6.125 "
           id="path4803" />
      </symbol>
      <symbol
         overflow="visible"
         id="symbol2484">
        <path
           style="stroke:none;"
           d=""
           id="path141" />
      </symbol>
      <symbol
         overflow="visible"
         id="symbol7163">
        <path
           style="stroke:none;"
           d="M 3.59375 -2.21875 C 3.59375 -2.984375 3.5 -3.546875 3.1875 -4.03125 C 2.96875 -4.34375 2.53125 -4.625 1.984375 -4.625 C 0.359375 -4.625 0.359375 -2.71875 0.359375 -2.21875 C 0.359375 -1.71875 0.359375 0.140625 1.984375 0.140625 C 3.59375 0.140625 3.59375 -1.71875 3.59375 -2.21875 Z M 1.984375 -0.0625 C 1.65625 -0.0625 1.234375 -0.25 1.09375 -0.8125 C 1 -1.21875 1 -1.796875 1 -2.3125 C 1 -2.828125 1 -3.359375 1.09375 -3.734375 C 1.25 -4.28125 1.6875 -4.4375 1.984375 -4.4375 C 2.359375 -4.4375 2.71875 -4.203125 2.84375 -3.796875 C 2.953125 -3.421875 2.96875 -2.921875 2.96875 -2.3125 C 2.96875 -1.796875 2.96875 -1.28125 2.875 -0.84375 C 2.734375 -0.203125 2.265625 -0.0625 1.984375 -0.0625 Z M 1.984375 -0.0625 "
           id="path1603" />
      </symbol>
    </g>
    <g
       id="g8927">
      <symbol
         overflow="visible"
         id="symbol9692">
        <path
           style="stroke:none;"
           d=""
           id="path7438" />
      </symbol>
      <symbol
         overflow="visible"
         id="symbol7942">
        <path
           style="stroke:none;"
           d="M 3.015625 -3.15625 L 4.71875 -3.15625 C 6.125 -3.15625 7.515625 -4.1875 7.515625 -5.296875 C 7.515625 -6.078125 6.859375 -6.8125 5.546875 -6.8125 L 2.328125 -6.8125 C 2.140625 -6.8125 2.03125 -6.8125 2.03125 -6.625 C 2.03125 -6.5 2.109375 -6.5 2.3125 -6.5 C 2.4375 -6.5 2.625 -6.484375 2.734375 -6.484375 C 2.90625 -6.453125 2.953125 -6.4375 2.953125 -6.3125 C 2.953125 -6.28125 2.953125 -6.25 2.921875 -6.125 L 1.578125 -0.78125 C 1.484375 -0.390625 1.46875 -0.3125 0.671875 -0.3125 C 0.515625 -0.3125 0.40625 -0.3125 0.40625 -0.125 C 0.40625 0 0.515625 0 0.546875 0 C 0.828125 0 1.53125 -0.03125 1.8125 -0.03125 C 2.03125 -0.03125 2.25 -0.015625 2.453125 -0.015625 C 2.671875 -0.015625 2.890625 0 3.09375 0 C 3.171875 0 3.296875 0 3.296875 -0.203125 C 3.296875 -0.3125 3.203125 -0.3125 3.015625 -0.3125 C 2.65625 -0.3125 2.375 -0.3125 2.375 -0.484375 C 2.375 -0.546875 2.390625 -0.59375 2.40625 -0.65625 Z M 3.734375 -6.125 C 3.828125 -6.46875 3.84375 -6.5 4.28125 -6.5 L 5.234375 -6.5 C 6.0625 -6.5 6.59375 -6.234375 6.59375 -5.546875 C 6.59375 -5.15625 6.390625 -4.296875 6 -3.9375 C 5.5 -3.484375 4.90625 -3.40625 4.46875 -3.40625 L 3.0625 -3.40625 Z M 3.734375 -6.125 "
           id="path2670" />
      </symbol>
      <symbol
         overflow="visible"
         id="symbol804">
        <path
           style="stroke:none;"
           d=""
           id="path536" />
      </symbol>
      <symbol
         overflow="visible"
         id="symbol5088">
        <path
           style="stroke:none;"
           d="M 2.328125 -4.4375 C 2.328125 -4.625 2.328125 -4.625 2.125 -4.625 C 1.671875 -4.1875 1.046875 -4.1875 0.765625 -4.1875 L 0.765625 -3.9375 C 0.921875 -3.9375 1.390625 -3.9375 1.765625 -4.125 L 1.765625 -0.578125 C 1.765625 -0.34375 1.765625 -0.25 1.078125 -0.25 L 0.8125 -0.25 L 0.8125 0 C 0.9375 0 1.796875 -0.03125 2.046875 -0.03125 C 2.265625 -0.03125 3.140625 0 3.296875 0 L 3.296875 -0.25 L 3.03125 -0.25 C 2.328125 -0.25 2.328125 -0.34375 2.328125 -0.578125 Z M 2.328125 -4.4375 "
           id="path5893" />
      </symbol>
    </g>
    <g
       id="g2973">
      <symbol
         overflow="visible"
         id="symbol2997">
        <path
           style="stroke:none;"
           d=""
           id="path8418" />
      </symbol>
      <symbol
         overflow="visible"
         id="symbol7283">
        <path
           style="stroke:none;"
           d="M 4.40625 -6.953125 C 4.34375 -7.09375 4.3125 -7.140625 4.140625 -7.140625 C 3.984375 -7.140625 3.953125 -7.09375 3.890625 -6.953125 L 0.515625 -0.203125 C 0.46875 -0.109375 0.46875 -0.09375 0.46875 -0.078125 C 0.46875 0 0.53125 0 0.6875 0 L 7.609375 0 C 7.765625 0 7.828125 0 7.828125 -0.078125 C 7.828125 -0.09375 7.828125 -0.109375 7.78125 -0.203125 Z M 3.828125 -6.140625 L 6.515625 -0.75 L 1.140625 -0.75 Z M 3.828125 -6.140625 "
           id="path6831" />
      </symbol>
      <symbol
         overflow="visible"
         id="symbol5351">
        <path
           style="stroke:none;"
           d=""
           id="path9241" />
      </symbol>
      <symbol
         overflow="visible"
         id="symbol5911">
        <path
           style="stroke:none;"
           d="M 7.0625 -2.328125 C 7.078125 -2.375 7.109375 -2.4375 7.109375 -2.46875 C 7.109375 -2.46875 7.109375 -2.578125 6.984375 -2.578125 C 6.890625 -2.578125 6.875 -2.515625 6.859375 -2.453125 C 6.203125 -0.984375 5.84375 -0.3125 4.140625 -0.3125 L 2.6875 -0.3125 C 2.546875 -0.3125 2.515625 -0.3125 2.46875 -0.3125 C 2.359375 -0.328125 2.328125 -0.34375 2.328125 -0.421875 C 2.328125 -0.453125 2.328125 -0.46875 2.375 -0.640625 L 3.0625 -3.375 L 4.046875 -3.375 C 4.890625 -3.375 4.890625 -3.15625 4.890625 -2.90625 C 4.890625 -2.84375 4.890625 -2.71875 4.828125 -2.421875 C 4.8125 -2.375 4.796875 -2.34375 4.796875 -2.3125 C 4.796875 -2.265625 4.828125 -2.203125 4.921875 -2.203125 C 5 -2.203125 5.03125 -2.25 5.078125 -2.40625 L 5.640625 -4.734375 C 5.640625 -4.796875 5.59375 -4.84375 5.515625 -4.84375 C 5.4375 -4.84375 5.40625 -4.78125 5.390625 -4.671875 C 5.171875 -3.90625 5 -3.671875 4.078125 -3.671875 L 3.140625 -3.671875 L 3.734375 -6.078125 C 3.828125 -6.4375 3.84375 -6.46875 4.28125 -6.46875 L 5.6875 -6.46875 C 6.890625 -6.46875 7.203125 -6.1875 7.203125 -5.359375 C 7.203125 -5.125 7.203125 -5.109375 7.15625 -4.828125 C 7.15625 -4.78125 7.140625 -4.703125 7.140625 -4.65625 C 7.140625 -4.609375 7.171875 -4.53125 7.265625 -4.53125 C 7.375 -4.53125 7.390625 -4.59375 7.40625 -4.78125 L 7.609375 -6.515625 C 7.640625 -6.78125 7.59375 -6.78125 7.34375 -6.78125 L 2.296875 -6.78125 C 2.109375 -6.78125 2 -6.78125 2 -6.578125 C 2 -6.46875 2.09375 -6.46875 2.28125 -6.46875 C 2.65625 -6.46875 2.9375 -6.46875 2.9375 -6.296875 C 2.9375 -6.25 2.9375 -6.234375 2.875 -6.046875 L 1.5625 -0.78125 C 1.46875 -0.390625 1.453125 -0.3125 0.65625 -0.3125 C 0.484375 -0.3125 0.375 -0.3125 0.375 -0.125 C 0.375 0 0.46875 0 0.65625 0 L 5.828125 0 C 6.0625 0 6.078125 -0.015625 6.140625 -0.171875 Z M 7.0625 -2.328125 "
           id="path8719" />
      </symbol>
    </g>
    <g
       id="g4388">
      <symbol
         overflow="visible"
         id="symbol4565">
        <path
           style="stroke:none;"
           d=""
           id="path5436" />
      </symbol>
      <symbol
         overflow="visible"
         id="symbol5057">
        <path
           style="stroke:none;"
           d="M 2.859375 -6.8125 C 2.859375 -6.8125 2.859375 -6.921875 2.734375 -6.921875 C 2.5 -6.921875 1.78125 -6.84375 1.515625 -6.8125 C 1.4375 -6.8125 1.328125 -6.796875 1.328125 -6.625 C 1.328125 -6.5 1.421875 -6.5 1.5625 -6.5 C 2.046875 -6.5 2.0625 -6.4375 2.0625 -6.328125 L 2.03125 -6.125 L 0.59375 -0.390625 C 0.546875 -0.25 0.546875 -0.234375 0.546875 -0.171875 C 0.546875 0.0625 0.75 0.109375 0.84375 0.109375 C 0.96875 0.109375 1.109375 0.015625 1.171875 -0.09375 C 1.21875 -0.1875 1.671875 -2.03125 1.734375 -2.28125 C 2.078125 -2.25 2.890625 -2.09375 2.890625 -1.4375 C 2.890625 -1.359375 2.890625 -1.328125 2.859375 -1.21875 C 2.84375 -1.109375 2.828125 -0.984375 2.828125 -0.875 C 2.828125 -0.296875 3.21875 0.109375 3.734375 0.109375 C 4.03125 0.109375 4.3125 -0.046875 4.53125 -0.421875 C 4.78125 -0.859375 4.890625 -1.40625 4.890625 -1.421875 C 4.890625 -1.53125 4.796875 -1.53125 4.765625 -1.53125 C 4.671875 -1.53125 4.65625 -1.484375 4.625 -1.34375 C 4.421875 -0.625 4.203125 -0.109375 3.765625 -0.109375 C 3.5625 -0.109375 3.4375 -0.21875 3.4375 -0.578125 C 3.4375 -0.75 3.484375 -0.984375 3.515625 -1.140625 C 3.5625 -1.3125 3.5625 -1.34375 3.5625 -1.453125 C 3.5625 -2.09375 2.9375 -2.375 2.078125 -2.5 C 2.390625 -2.671875 2.71875 -2.984375 2.9375 -3.234375 C 3.421875 -3.765625 3.875 -4.1875 4.359375 -4.1875 C 4.421875 -4.1875 4.4375 -4.1875 4.453125 -4.171875 C 4.578125 -4.15625 4.578125 -4.15625 4.671875 -4.09375 C 4.6875 -4.09375 4.6875 -4.078125 4.703125 -4.0625 C 4.234375 -4.03125 4.140625 -3.640625 4.140625 -3.515625 C 4.140625 -3.359375 4.25 -3.171875 4.515625 -3.171875 C 4.78125 -3.171875 5.0625 -3.390625 5.0625 -3.78125 C 5.0625 -4.078125 4.828125 -4.40625 4.390625 -4.40625 C 4.109375 -4.40625 3.65625 -4.328125 2.9375 -3.53125 C 2.59375 -3.15625 2.203125 -2.75 1.828125 -2.609375 Z M 2.859375 -6.8125 "
           id="path2776" />
      </symbol>
      <symbol
         overflow="visible"
         id="symbol5400">
        <path
           style="stroke:none;"
           d=""
           id="path2364" />
      </symbol>
      <symbol
         overflow="visible"
         id="symbol6293">
        <path
           style="stroke:none;"
           d="M 1.734375 -0.734375 C 1.671875 -0.5 1.4375 -0.125 1.078125 -0.125 C 1.0625 -0.125 0.84375 -0.125 0.703125 -0.21875 C 0.984375 -0.3125 1.015625 -0.5625 1.015625 -0.609375 C 1.015625 -0.765625 0.890625 -0.859375 0.734375 -0.859375 C 0.53125 -0.859375 0.328125 -0.703125 0.328125 -0.4375 C 0.328125 -0.09375 0.71875 0.0625 1.0625 0.0625 C 1.390625 0.0625 1.671875 -0.125 1.84375 -0.421875 C 2.015625 -0.0625 2.390625 0.0625 2.671875 0.0625 C 3.484375 0.0625 3.90625 -0.796875 3.90625 -1 C 3.90625 -1.09375 3.8125 -1.09375 3.796875 -1.09375 C 3.6875 -1.09375 3.6875 -1.046875 3.65625 -0.96875 C 3.515625 -0.484375 3.09375 -0.125 2.703125 -0.125 C 2.421875 -0.125 2.28125 -0.3125 2.28125 -0.578125 C 2.28125 -0.765625 2.453125 -1.390625 2.640625 -2.171875 C 2.78125 -2.703125 3.09375 -2.875 3.328125 -2.875 C 3.34375 -2.875 3.546875 -2.875 3.703125 -2.78125 C 3.484375 -2.71875 3.390625 -2.515625 3.390625 -2.390625 C 3.390625 -2.25 3.515625 -2.140625 3.671875 -2.140625 C 3.828125 -2.140625 4.0625 -2.265625 4.0625 -2.5625 C 4.0625 -2.953125 3.609375 -3.078125 3.34375 -3.078125 C 2.984375 -3.078125 2.703125 -2.84375 2.5625 -2.578125 C 2.4375 -2.859375 2.109375 -3.078125 1.71875 -3.078125 C 0.9375 -3.078125 0.5 -2.21875 0.5 -2 C 0.5 -1.921875 0.59375 -1.921875 0.609375 -1.921875 C 0.703125 -1.921875 0.703125 -1.9375 0.75 -2.03125 C 0.921875 -2.578125 1.359375 -2.875 1.703125 -2.875 C 1.9375 -2.875 2.125 -2.75 2.125 -2.421875 C 2.125 -2.28125 2.03125 -1.9375 1.96875 -1.6875 Z M 1.734375 -0.734375 "
           id="path6011" />
      </symbol>
    </g>
    <g
       id="g9240">
      <symbol
         overflow="visible"
         id="symbol6877">
        <path
           style="stroke:none;"
           d=""
           id="path1093" />
      </symbol>
      <symbol
         overflow="visible"
         id="symbol8903">
        <path
           style="stroke:none;"
           d="M 2.859375 -6.8125 C 2.859375 -6.8125 2.859375 -6.921875 2.734375 -6.921875 C 2.5 -6.921875 1.78125 -6.84375 1.515625 -6.8125 C 1.4375 -6.8125 1.328125 -6.796875 1.328125 -6.625 C 1.328125 -6.5 1.421875 -6.5 1.5625 -6.5 C 2.046875 -6.5 2.0625 -6.4375 2.0625 -6.328125 L 2.03125 -6.125 L 0.59375 -0.390625 C 0.546875 -0.25 0.546875 -0.234375 0.546875 -0.171875 C 0.546875 0.0625 0.75 0.109375 0.84375 0.109375 C 0.96875 0.109375 1.109375 0.015625 1.171875 -0.09375 C 1.21875 -0.1875 1.671875 -2.03125 1.734375 -2.28125 C 2.078125 -2.25 2.890625 -2.09375 2.890625 -1.4375 C 2.890625 -1.359375 2.890625 -1.328125 2.859375 -1.21875 C 2.84375 -1.109375 2.828125 -0.984375 2.828125 -0.875 C 2.828125 -0.296875 3.21875 0.109375 3.734375 0.109375 C 4.03125 0.109375 4.3125 -0.046875 4.53125 -0.421875 C 4.78125 -0.859375 4.890625 -1.40625 4.890625 -1.421875 C 4.890625 -1.53125 4.796875 -1.53125 4.765625 -1.53125 C 4.671875 -1.53125 4.65625 -1.484375 4.625 -1.34375 C 4.421875 -0.625 4.203125 -0.109375 3.765625 -0.109375 C 3.5625 -0.109375 3.4375 -0.21875 3.4375 -0.578125 C 3.4375 -0.75 3.484375 -0.984375 3.515625 -1.140625 C 3.5625 -1.3125 3.5625 -1.34375 3.5625 -1.453125 C 3.5625 -2.09375 2.9375 -2.375 2.078125 -2.5 C 2.390625 -2.671875 2.71875 -2.984375 2.9375 -3.234375 C 3.421875 -3.765625 3.875 -4.1875 4.359375 -4.1875 C 4.421875 -4.1875 4.4375 -4.1875 4.453125 -4.171875 C 4.578125 -4.15625 4.578125 -4.15625 4.671875 -4.09375 C 4.6875 -4.09375 4.6875 -4.078125 4.703125 -4.0625 C 4.234375 -4.03125 4.140625 -3.640625 4.140625 -3.515625 C 4.140625 -3.359375 4.25 -3.171875 4.515625 -3.171875 C 4.78125 -3.171875 5.0625 -3.390625 5.0625 -3.78125 C 5.0625 -4.078125 4.828125 -4.40625 4.390625 -4.40625 C 4.109375 -4.40625 3.65625 -4.328125 2.9375 -3.53125 C 2.59375 -3.15625 2.203125 -2.75 1.828125 -2.609375 Z M 2.859375 -6.8125 "
           id="path5216" />
      </symbol>
      <symbol
         overflow="visible"
         id="symbol1592">
        <path
           style="stroke:none;"
           d=""
           id="path7283" />
      </symbol>
      <symbol
         overflow="visible"
         id="symbol3372">
        <path
           style="stroke:none;"
           d="M 3.875 -2.625 C 3.90625 -2.71875 3.90625 -2.734375 3.90625 -2.78125 C 3.90625 -2.921875 3.796875 -3 3.671875 -3 C 3.59375 -3 3.46875 -2.96875 3.390625 -2.84375 C 3.359375 -2.796875 3.3125 -2.578125 3.28125 -2.4375 L 3.125 -1.859375 C 3.09375 -1.6875 2.875 -0.8125 2.84375 -0.734375 C 2.84375 -0.734375 2.53125 -0.125 2 -0.125 C 1.515625 -0.125 1.515625 -0.578125 1.515625 -0.703125 C 1.515625 -1.078125 1.671875 -1.515625 1.890625 -2.0625 C 1.96875 -2.28125 2 -2.359375 2 -2.484375 C 2 -2.8125 1.71875 -3.078125 1.34375 -3.078125 C 0.640625 -3.078125 0.328125 -2.125 0.328125 -2 C 0.328125 -1.921875 0.421875 -1.921875 0.453125 -1.921875 C 0.546875 -1.921875 0.546875 -1.953125 0.578125 -2.03125 C 0.75 -2.609375 1.046875 -2.875 1.328125 -2.875 C 1.4375 -2.875 1.5 -2.796875 1.5 -2.640625 C 1.5 -2.46875 1.4375 -2.328125 1.40625 -2.234375 C 1.0625 -1.375 1 -1.125 1 -0.8125 C 1 -0.703125 1 -0.375 1.265625 -0.140625 C 1.484375 0.03125 1.78125 0.0625 1.96875 0.0625 C 2.25 0.0625 2.5 -0.03125 2.71875 -0.25 C 2.640625 0.140625 2.5625 0.4375 2.265625 0.78125 C 2.078125 1 1.796875 1.21875 1.421875 1.21875 C 1.375 1.21875 1.046875 1.21875 0.90625 1 C 1.28125 0.953125 1.28125 0.625 1.28125 0.609375 C 1.28125 0.390625 1.078125 0.34375 1.015625 0.34375 C 0.84375 0.34375 0.609375 0.484375 0.609375 0.8125 C 0.609375 1.15625 0.9375 1.421875 1.4375 1.421875 C 2.140625 1.421875 3 0.875 3.21875 0 Z M 3.875 -2.625 "
           id="path6245" />
      </symbol>
    </g>
    <clipPath
       clipPathUnits="userSpaceOnUse"
       id="clipPath5412">
      <path
         d="m 576,316.801 h 3571 v 2218 H 576 Z"
         id="path5410" />
    </clipPath>
    <clipPath
       clipPathUnits="userSpaceOnUse"
       id="clipPath98518">
      <path
         d=""
         id="path98516" />
    </clipPath>
    <clipPath
       clipPathUnits="userSpaceOnUse"
       id="clipPath191770">
      <path
         d="m 576,316.801 h 3571 v 2218 H 576 Z"
         id="path191768" />
    </clipPath>
    <clipPath
       clipPathUnits="userSpaceOnUse"
       id="clipPath284876">
      <path
         d=""
         id="path284874" />
    </clipPath>
    <g
       id="g8487">
      <symbol
         overflow="visible"
         id="symbol6486">
        <path
           style="stroke:none;"
           d=""
           id="path1826" />
      </symbol>
      <symbol
         overflow="visible"
         id="symbol8164">
        <path
           style="stroke:none;"
           d="M 4.5 -4.296875 C 4.5 -4.34375 4.46875 -4.390625 4.40625 -4.390625 C 4.296875 -4.390625 3.890625 -4 3.734375 -3.703125 C 3.515625 -4.25 3.125 -4.40625 2.796875 -4.40625 C 1.625 -4.40625 0.40625 -2.9375 0.40625 -1.484375 C 0.40625 -0.515625 0.984375 0.109375 1.71875 0.109375 C 2.140625 0.109375 2.53125 -0.125 2.890625 -0.484375 C 2.796875 -0.140625 2.46875 1.203125 2.4375 1.296875 C 2.359375 1.578125 2.28125 1.609375 1.71875 1.625 C 1.59375 1.625 1.5 1.625 1.5 1.828125 C 1.5 1.828125 1.5 1.9375 1.625 1.9375 C 1.9375 1.9375 2.296875 1.90625 2.625 1.90625 C 2.953125 1.90625 3.3125 1.9375 3.65625 1.9375 C 3.703125 1.9375 3.828125 1.9375 3.828125 1.734375 C 3.828125 1.625 3.734375 1.625 3.5625 1.625 C 3.09375 1.625 3.09375 1.5625 3.09375 1.46875 C 3.09375 1.390625 3.109375 1.328125 3.125 1.25 Z M 1.75 -0.109375 C 1.140625 -0.109375 1.109375 -0.875 1.109375 -1.046875 C 1.109375 -1.53125 1.390625 -2.609375 1.5625 -3.03125 C 1.875 -3.765625 2.390625 -4.1875 2.796875 -4.1875 C 3.453125 -4.1875 3.59375 -3.375 3.59375 -3.3125 C 3.59375 -3.25 3.046875 -1.0625 3.015625 -1.03125 C 2.859375 -0.75 2.296875 -0.109375 1.75 -0.109375 Z M 1.75 -0.109375 "
           id="path2517" />
      </symbol>
      <symbol
         overflow="visible"
         id="symbol6876">
        <path
           style="stroke:none;"
           d=""
           id="path7717" />
      </symbol>
      <symbol
         overflow="visible"
         id="symbol4711">
        <path
           style="stroke:none;"
           d="M 1.734375 -0.734375 C 1.671875 -0.5 1.4375 -0.125 1.078125 -0.125 C 1.0625 -0.125 0.84375 -0.125 0.703125 -0.21875 C 0.984375 -0.3125 1.015625 -0.5625 1.015625 -0.609375 C 1.015625 -0.765625 0.890625 -0.859375 0.734375 -0.859375 C 0.53125 -0.859375 0.328125 -0.703125 0.328125 -0.4375 C 0.328125 -0.09375 0.71875 0.0625 1.0625 0.0625 C 1.390625 0.0625 1.671875 -0.125 1.84375 -0.421875 C 2.015625 -0.0625 2.390625 0.0625 2.671875 0.0625 C 3.484375 0.0625 3.90625 -0.796875 3.90625 -1 C 3.90625 -1.09375 3.8125 -1.09375 3.796875 -1.09375 C 3.6875 -1.09375 3.6875 -1.046875 3.65625 -0.96875 C 3.515625 -0.484375 3.09375 -0.125 2.703125 -0.125 C 2.421875 -0.125 2.28125 -0.3125 2.28125 -0.578125 C 2.28125 -0.765625 2.453125 -1.390625 2.640625 -2.171875 C 2.78125 -2.703125 3.09375 -2.875 3.328125 -2.875 C 3.34375 -2.875 3.546875 -2.875 3.703125 -2.78125 C 3.484375 -2.71875 3.390625 -2.515625 3.390625 -2.390625 C 3.390625 -2.25 3.515625 -2.140625 3.671875 -2.140625 C 3.828125 -2.140625 4.0625 -2.265625 4.0625 -2.5625 C 4.0625 -2.953125 3.609375 -3.078125 3.34375 -3.078125 C 2.984375 -3.078125 2.703125 -2.84375 2.5625 -2.578125 C 2.4375 -2.859375 2.109375 -3.078125 1.71875 -3.078125 C 0.9375 -3.078125 0.5 -2.21875 0.5 -2 C 0.5 -1.921875 0.59375 -1.921875 0.609375 -1.921875 C 0.703125 -1.921875 0.703125 -1.9375 0.75 -2.03125 C 0.921875 -2.578125 1.359375 -2.875 1.703125 -2.875 C 1.9375 -2.875 2.125 -2.75 2.125 -2.421875 C 2.125 -2.28125 2.03125 -1.9375 1.96875 -1.6875 Z M 1.734375 -0.734375 "
           id="path356" />
      </symbol>
    </g>
    <g
       id="g9914">
      <symbol
         overflow="visible"
         id="symbol470">
        <path
           style="stroke:none;"
           d=""
           id="path1564" />
      </symbol>
      <symbol
         overflow="visible"
         id="symbol2116">
        <path
           style="stroke:none;"
           d="M 4.5 -4.296875 C 4.5 -4.34375 4.46875 -4.390625 4.40625 -4.390625 C 4.296875 -4.390625 3.890625 -4 3.734375 -3.703125 C 3.515625 -4.25 3.125 -4.40625 2.796875 -4.40625 C 1.625 -4.40625 0.40625 -2.9375 0.40625 -1.484375 C 0.40625 -0.515625 0.984375 0.109375 1.71875 0.109375 C 2.140625 0.109375 2.53125 -0.125 2.890625 -0.484375 C 2.796875 -0.140625 2.46875 1.203125 2.4375 1.296875 C 2.359375 1.578125 2.28125 1.609375 1.71875 1.625 C 1.59375 1.625 1.5 1.625 1.5 1.828125 C 1.5 1.828125 1.5 1.9375 1.625 1.9375 C 1.9375 1.9375 2.296875 1.90625 2.625 1.90625 C 2.953125 1.90625 3.3125 1.9375 3.65625 1.9375 C 3.703125 1.9375 3.828125 1.9375 3.828125 1.734375 C 3.828125 1.625 3.734375 1.625 3.5625 1.625 C 3.09375 1.625 3.09375 1.5625 3.09375 1.46875 C 3.09375 1.390625 3.109375 1.328125 3.125 1.25 Z M 1.75 -0.109375 C 1.140625 -0.109375 1.109375 -0.875 1.109375 -1.046875 C 1.109375 -1.53125 1.390625 -2.609375 1.5625 -3.03125 C 1.875 -3.765625 2.390625 -4.1875 2.796875 -4.1875 C 3.453125 -4.1875 3.59375 -3.375 3.59375 -3.3125 C 3.59375 -3.25 3.046875 -1.0625 3.015625 -1.03125 C 2.859375 -0.75 2.296875 -0.109375 1.75 -0.109375 Z M 1.75 -0.109375 "
           id="path7215" />
      </symbol>
      <symbol
         overflow="visible"
         id="symbol5993">
        <path
           style="stroke:none;"
           d=""
           id="path279" />
      </symbol>
      <symbol
         overflow="visible"
         id="symbol1174">
        <path
           style="stroke:none;"
           d="M 3.875 -2.625 C 3.90625 -2.71875 3.90625 -2.734375 3.90625 -2.78125 C 3.90625 -2.921875 3.796875 -3 3.671875 -3 C 3.59375 -3 3.46875 -2.96875 3.390625 -2.84375 C 3.359375 -2.796875 3.3125 -2.578125 3.28125 -2.4375 L 3.125 -1.859375 C 3.09375 -1.6875 2.875 -0.8125 2.84375 -0.734375 C 2.84375 -0.734375 2.53125 -0.125 2 -0.125 C 1.515625 -0.125 1.515625 -0.578125 1.515625 -0.703125 C 1.515625 -1.078125 1.671875 -1.515625 1.890625 -2.0625 C 1.96875 -2.28125 2 -2.359375 2 -2.484375 C 2 -2.8125 1.71875 -3.078125 1.34375 -3.078125 C 0.640625 -3.078125 0.328125 -2.125 0.328125 -2 C 0.328125 -1.921875 0.421875 -1.921875 0.453125 -1.921875 C 0.546875 -1.921875 0.546875 -1.953125 0.578125 -2.03125 C 0.75 -2.609375 1.046875 -2.875 1.328125 -2.875 C 1.4375 -2.875 1.5 -2.796875 1.5 -2.640625 C 1.5 -2.46875 1.4375 -2.328125 1.40625 -2.234375 C 1.0625 -1.375 1 -1.125 1 -0.8125 C 1 -0.703125 1 -0.375 1.265625 -0.140625 C 1.484375 0.03125 1.78125 0.0625 1.96875 0.0625 C 2.25 0.0625 2.5 -0.03125 2.71875 -0.25 C 2.640625 0.140625 2.5625 0.4375 2.265625 0.78125 C 2.078125 1 1.796875 1.21875 1.421875 1.21875 C 1.375 1.21875 1.046875 1.21875 0.90625 1 C 1.28125 0.953125 1.28125 0.625 1.28125 0.609375 C 1.28125 0.390625 1.078125 0.34375 1.015625 0.34375 C 0.84375 0.34375 0.609375 0.484375 0.609375 0.8125 C 0.609375 1.15625 0.9375 1.421875 1.4375 1.421875 C 2.140625 1.421875 3 0.875 3.21875 0 Z M 3.875 -2.625 "
           id="path3901" />
      </symbol>
    </g>
    <g
       id="g7246">
      <symbol
         overflow="visible"
         id="symbol249">
        <path
           style="stroke:none;"
           d=""
           id="path4309" />
      </symbol>
      <symbol
         overflow="visible"
         id="symbol8975">
        <path
           style="stroke:none;"
           d="M 4.5 -4.296875 C 4.5 -4.34375 4.46875 -4.390625 4.40625 -4.390625 C 4.296875 -4.390625 3.890625 -4 3.734375 -3.703125 C 3.515625 -4.25 3.125 -4.40625 2.796875 -4.40625 C 1.625 -4.40625 0.40625 -2.9375 0.40625 -1.484375 C 0.40625 -0.515625 0.984375 0.109375 1.71875 0.109375 C 2.140625 0.109375 2.53125 -0.125 2.890625 -0.484375 C 2.796875 -0.140625 2.46875 1.203125 2.4375 1.296875 C 2.359375 1.578125 2.28125 1.609375 1.71875 1.625 C 1.59375 1.625 1.5 1.625 1.5 1.828125 C 1.5 1.828125 1.5 1.9375 1.625 1.9375 C 1.9375 1.9375 2.296875 1.90625 2.625 1.90625 C 2.953125 1.90625 3.3125 1.9375 3.65625 1.9375 C 3.703125 1.9375 3.828125 1.9375 3.828125 1.734375 C 3.828125 1.625 3.734375 1.625 3.5625 1.625 C 3.09375 1.625 3.09375 1.5625 3.09375 1.46875 C 3.09375 1.390625 3.109375 1.328125 3.125 1.25 Z M 1.75 -0.109375 C 1.140625 -0.109375 1.109375 -0.875 1.109375 -1.046875 C 1.109375 -1.53125 1.390625 -2.609375 1.5625 -3.03125 C 1.875 -3.765625 2.390625 -4.1875 2.796875 -4.1875 C 3.453125 -4.1875 3.59375 -3.375 3.59375 -3.3125 C 3.59375 -3.25 3.046875 -1.0625 3.015625 -1.03125 C 2.859375 -0.75 2.296875 -0.109375 1.75 -0.109375 Z M 1.75 -0.109375 "
           id="path4001" />
      </symbol>
      <symbol
         overflow="visible"
         id="symbol8347">
        <path
           style="stroke:none;"
           d=""
           id="path3989" />
      </symbol>
      <symbol
         overflow="visible"
         id="symbol6622">
        <path
           style="stroke:none;"
           d="M 3.28125 -4.5625 C 3.28125 -4.671875 3.28125 -4.84375 3.109375 -4.84375 C 2.9375 -4.84375 2.9375 -4.671875 2.9375 -4.5625 L 2.9375 -0.34375 L 0.8125 -0.34375 C 0.703125 -0.34375 0.53125 -0.34375 0.53125 -0.171875 C 0.53125 0 0.703125 0 0.8125 0 L 5.40625 0 C 5.515625 0 5.6875 0 5.6875 -0.171875 C 5.6875 -0.34375 5.53125 -0.34375 5.40625 -0.34375 L 3.28125 -0.34375 Z M 3.28125 -4.5625 "
           id="path6235" />
      </symbol>
    </g>
  </defs>
  <sodipodi:namedview
     id="base"
     pagecolor="#ffffff"
     bordercolor="#666666"
     borderopacity="1.0"
     inkscape:pageopacity="0.0"
     inkscape:pageshadow="2"
     inkscape:zoom="5.6"
     inkscape:cx="196.42234"
     inkscape:cy="117.8278"
     inkscape:document-units="mm"
     inkscape:current-layer="layer1"
     inkscape:document-rotation="0"
     showgrid="false"
     inkscape:window-width="3840"
     inkscape:window-height="2080"
     inkscape:window-x="3829"
     inkscape:window-y="-11"
     inkscape:window-maximized="1"
     inkscape:snap-bbox="true"
     inkscape:bbox-paths="true"
     inkscape:bbox-nodes="true"
     inkscape:snap-bbox-edge-midpoints="true"
     inkscape:snap-bbox-midpoints="true"
     inkscape:object-paths="true"
     inkscape:snap-intersection-paths="true"
     inkscape:snap-smooth-nodes="true"
     inkscape:snap-midpoints="true"
     inkscape:snap-object-midpoints="true"
     inkscape:snap-center="true"
     inkscape:snap-text-baseline="true" />
  <metadata
     id="metadata3741">
    <rdf:RDF>
      <cc:Work
         rdf:about="">
        <dc:format>image/svg+xml</dc:format>
        <dc:type
           rdf:resource="http://purl.org/dc/dcmitype/StillImage" />
        <dc:title />
      </cc:Work>
    </rdf:RDF>
  </metadata>
  <g
     inkscape:label="Layer 1"
     inkscape:groupmode="layer"
     id="layer1">
    <g
       sodipodi:type="inkscape:box3d"
       id="g4351"
       style="fill-rule:evenodd;stroke:none;stroke-linejoin:round"
       inkscape:perspectiveID="#perspective4307"
       inkscape:corner0="0.61008956 : 0.22749175 : 0 : 1"
       inkscape:corner7="0.22006786 : 0.16595182 : 0.29093401 : 1"
       inkscape:export-filename="C:\Users\Jeroe\Documents\TU Delft\BEP report\Resources\Figures\int-tech.png"
       inkscape:export-xdpi="200"
       inkscape:export-ydpi="200">
      <path
         sodipodi:type="inkscape:box3dside"
         id="path4363"
         style="fill:#e9e9ff;fill-rule:evenodd;stroke:none;stroke-width:0.430991;stroke-linejoin:round"
         inkscape:box3dsidetype="11"
         d="m 41.896559,10.971267 47.459581,8.368405 v 26.52313 L 41.896559,37.494397 Z"
         points="89.35614,19.339672 89.35614,45.862802 41.896559,37.494397 41.896559,10.971267 " />
      <path
         sodipodi:type="inkscape:box3dside"
         id="path4353"
         style="fill:#353564;fill-rule:evenodd;stroke:none;stroke-width:0.430991;stroke-linejoin:round"
         inkscape:box3dsidetype="6"
         d="m 9.4194846,22.791956 v 26.52313 L 41.896559,37.494397 v -26.52313 z"
         points="9.4194846,49.315086 41.896559,37.494397 41.896559,10.971267 9.4194846,22.791956 " />
      <path
         sodipodi:type="inkscape:box3dside"
         id="path4361"
         style="fill:#afafde;fill-rule:evenodd;stroke:none;stroke-width:0.430991;stroke-linejoin:round"
         inkscape:box3dsidetype="13"
         d="M 9.4194846,49.315086 56.879066,57.683491 89.35614,45.862802 41.896559,37.494397 Z"
         points="56.879066,57.683491 89.35614,45.862802 41.896559,37.494397 9.4194846,49.315086 " />
      <path
         sodipodi:type="inkscape:box3dside"
         id="path4355"
         style="fill:#7676bd;fill-opacity:1;fill-rule:evenodd;stroke:none;stroke-width:0.430991;stroke-linejoin:round"
         inkscape:box3dsidetype="5"
         d="M 9.4194846,22.791956 56.879066,31.160361 89.35614,19.339672 41.896559,10.971267 Z"
         points="56.879066,31.160361 89.35614,19.339672 41.896559,10.971267 9.4194846,22.791956 " />
      <path
         sodipodi:type="inkscape:box3dside"
         id="path4359"
         style="fill:#d7d7ff;fill-rule:evenodd;stroke:none;stroke-width:0.430991;stroke-linejoin:round"
         inkscape:box3dsidetype="14"
         d="m 56.879066,31.160361 v 26.52313 L 89.35614,45.862802 v -26.52313 z"
         points="56.879066,57.683491 89.35614,45.862802 89.35614,19.339672 56.879066,31.160361 " />
      <path
         sodipodi:type="inkscape:box3dside"
         id="path4357"
         style="fill:#8686bf;fill-rule:evenodd;stroke:none;stroke-width:0.430991;stroke-linejoin:round"
         inkscape:box3dsidetype="3"
         d="m 9.4194846,22.791956 47.4595814,8.368405 v 26.52313 L 9.4194846,49.315086 Z"
         points="56.879066,31.160361 56.879066,57.683491 9.4194846,49.315086 9.4194846,22.791956 " />
    </g>
  </g>
  <g
     inkscape:groupmode="layer"
     id="layer2"
     inkscape:label="Layer 2">
    <path
       style="fill:none;stroke:#000000;stroke-width:0.329708;stroke-linecap:butt;stroke-linejoin:miter;stroke-miterlimit:4;stroke-dasharray:none;stroke-opacity:1;marker-end:url(#marker4708)"
       d="M 9.419485,22.791956 41.89656,10.971267"
       id="path4380"
       inkscape:export-filename="C:\Users\Jeroe\Documents\TU Delft\BEP report\Resources\Figures\int-tech.png"
       inkscape:export-xdpi="200"
       inkscape:export-ydpi="200" />
    <path
       style="fill:none;stroke:#000000;stroke-width:0.329708;stroke-linecap:butt;stroke-linejoin:miter;stroke-miterlimit:4;stroke-dasharray:none;stroke-opacity:1;marker-end:url(#marker4512)"
       d="m 9.419485,22.791956 47.459581,8.368405"
       id="path4382"
       inkscape:export-filename="C:\Users\Jeroe\Documents\TU Delft\BEP report\Resources\Figures\int-tech.png"
       inkscape:export-xdpi="200"
       inkscape:export-ydpi="200" />
    <path
       style="fill:none;stroke:#000000;stroke-width:0.329708;stroke-linecap:butt;stroke-linejoin:miter;stroke-miterlimit:4;stroke-dasharray:none;stroke-opacity:1;marker-end:url(#marker4724)"
       d="M 9.419485,22.791956 V 49.315083"
       id="path4384"
       inkscape:export-filename="C:\Users\Jeroe\Documents\TU Delft\BEP report\Resources\Figures\int-tech.png"
       inkscape:export-xdpi="200"
       inkscape:export-ydpi="200" />
    <ellipse
       style="fill:#7676bd;fill-opacity:1;stroke:#111111;stroke-width:0.765;stroke-miterlimit:4;stroke-dasharray:2.295, 0.765;stroke-dashoffset:0;stroke-opacity:1"
       id="path4846"
       cx="47.674202"
       cy="20.379303"
       rx="0.23386084"
       ry="0.06681738"
       inkscape:export-filename="C:\Users\Jeroe\Documents\TU Delft\BEP report\Resources\Figures\int-tech.png"
       inkscape:export-xdpi="200"
       inkscape:export-ydpi="200" />
    <ellipse
       style="fill:#7676bd;fill-opacity:1;stroke:#111111;stroke-width:0.765;stroke-miterlimit:4;stroke-dasharray:2.295, 0.765;stroke-dashoffset:0;stroke-opacity:1"
       id="path4848"
       cx="75.198524"
       cy="19.978397"
       rx="0.20045215"
       ry="0.06681738"
       inkscape:export-filename="C:\Users\Jeroe\Documents\TU Delft\BEP report\Resources\Figures\int-tech.png"
       inkscape:export-xdpi="200"
       inkscape:export-ydpi="200" />
    <path
       style="fill:none;stroke:#000000;stroke-width:0.465;stroke-linecap:butt;stroke-linejoin:miter;stroke-miterlimit:4;stroke-dasharray:0.465, 0.465;stroke-dashoffset:0;stroke-opacity:1"
       d="M 47.640792,20.312483 V 8.0180841"
       id="path4850"
       inkscape:export-filename="C:\Users\Jeroe\Documents\TU Delft\BEP report\Resources\Figures\int-tech.png"
       inkscape:export-xdpi="200"
       inkscape:export-ydpi="200" />
    <path
       style="fill:none;stroke:#000000;stroke-width:0.465;stroke-linecap:butt;stroke-linejoin:miter;stroke-miterlimit:4;stroke-dasharray:0.465, 0.465;stroke-dashoffset:0;stroke-opacity:1"
       d="M 75.19853,19.911579 V 7.6171801"
       id="path4852"
       inkscape:export-filename="C:\Users\Jeroe\Documents\TU Delft\BEP report\Resources\Figures\int-tech.png"
       inkscape:export-xdpi="200"
       inkscape:export-ydpi="200" />
    <g
       inkscape:label=""
       transform="matrix(0.61237016,0,0,0.61237016,-12.168523,-43.575511)"
       id="g4899"
       inkscape:export-filename="C:\Users\Jeroe\Documents\TU Delft\BEP report\Resources\Figures\int-tech.png"
       inkscape:export-xdpi="200"
       inkscape:export-ydpi="200">
      <g
         id="g6929">
        <g
           style="fill:#000000;fill-opacity:1"
           id="g4043">
          <use
             xlink:href="#symbol3327"
             x="91.925003"
             y="81.962997"
             id="use1072"
             width="100%"
             height="100%" />
        </g>
        <g
           style="fill:#000000;fill-opacity:1"
           id="g5827">
          <use
             xlink:href="#symbol7163"
             x="98.320999"
             y="83.457001"
             id="use1054"
             width="100%"
             height="100%" />
        </g>
      </g>
    </g>
    <g
       inkscape:label=""
       transform="matrix(0.61237016,0,0,0.61237016,15.578979,-43.489397)"
       id="g4978"
       inkscape:export-filename="C:\Users\Jeroe\Documents\TU Delft\BEP report\Resources\Figures\int-tech.png"
       inkscape:export-xdpi="200"
       inkscape:export-ydpi="200">
      <g
         id="g1299">
        <g
           style="fill:#000000;fill-opacity:1"
           id="g4684">
          <use
             xlink:href="#symbol7942"
             x="91.925003"
             y="81.962997"
             id="use2371"
             width="100%"
             height="100%" />
        </g>
        <g
           style="fill:#000000;fill-opacity:1"
           id="g5539">
          <use
             xlink:href="#symbol5088"
             x="98.320999"
             y="83.457001"
             id="use8669"
             width="100%"
             height="100%" />
        </g>
      </g>
    </g>
    <g
       inkscape:label=""
       transform="matrix(0,-0.61237016,0.61237016,0,-42.094811,96.746125)"
       id="g5072"
       inkscape:export-filename="C:\Users\Jeroe\Documents\TU Delft\BEP report\Resources\Figures\int-tech.png"
       inkscape:export-xdpi="200"
       inkscape:export-ydpi="200">
      <g
         id="g1333">
        <g
           style="fill:#000000;fill-opacity:1"
           id="g5085">
          <use
             xlink:href="#symbol7283"
             x="91.925003"
             y="81.962997"
             id="use2616"
             width="100%"
             height="100%" />
        </g>
        <g
           style="fill:#000000;fill-opacity:1"
           id="g1128">
          <use
             xlink:href="#symbol5911"
             x="100.227"
             y="81.962997"
             id="use9477"
             width="100%"
             height="100%" />
        </g>
      </g>
    </g>
    <ellipse
       style="fill:none;stroke:#000009;stroke-width:0.46500002;stroke-miterlimit:4;stroke-dasharray:11.16000043, 0.46500002000000001;stroke-dashoffset:0;stroke-opacity:1"
       id="path94271"
       cx="47.674202"
       cy="20.379303"
       rx="27.628984"
       ry="5.3787975"
       inkscape:export-filename="C:\Users\Jeroe\Documents\TU Delft\BEP report\Resources\Figures\int-tech.png"
       inkscape:export-xdpi="200"
       inkscape:export-ydpi="200" />
    <ellipse
       style="fill:none;stroke:#000009;stroke-width:0.465;stroke-miterlimit:4;stroke-dasharray:11.16, 0.465;stroke-dashoffset:0;stroke-opacity:1"
       id="path94273"
       cx="47.674202"
       cy="20.446119"
       rx="21.739088"
       ry="3.5981665"
       inkscape:export-filename="C:\Users\Jeroe\Documents\TU Delft\BEP report\Resources\Figures\int-tech.png"
       inkscape:export-xdpi="200"
       inkscape:export-ydpi="200" />
    <path
       style="fill:none;stroke:#00be00;stroke-width:0.265;stroke-linecap:butt;stroke-linejoin:miter;stroke-miterlimit:4;stroke-dasharray:0.53, 0.26500000000000001;stroke-dashoffset:0;stroke-opacity:1"
       d="M 86.227829,15.702085 47.674201,20.44612 87.363726,23.085405"
       id="path94275"
       sodipodi:nodetypes="ccc"
       inkscape:export-filename="C:\Users\Jeroe\Documents\TU Delft\BEP report\Resources\Figures\int-tech.png"
       inkscape:export-xdpi="200"
       inkscape:export-ydpi="200" />
    <ellipse
       style="fill:none;stroke:#000006;stroke-width:0.465;stroke-miterlimit:4;stroke-dasharray:11.16, 0.46500000000000002;stroke-dashoffset:0;stroke-opacity:0.3561644"
       id="ellipse94277"
       cx="47.674202"
       cy="43.036533"
       rx="27.628984"
       ry="5.3787975"
       inkscape:export-filename="C:\Users\Jeroe\Documents\TU Delft\BEP report\Resources\Figures\int-tech.png"
       inkscape:export-xdpi="200"
       inkscape:export-ydpi="200" />
    <ellipse
       style="fill:none;stroke:#000006;stroke-width:0.465;stroke-miterlimit:4;stroke-dasharray:11.16, 0.46500000000000002;stroke-dashoffset:0;stroke-opacity:0.3561644"
       id="ellipse94279"
       cx="47.674202"
       cy="43.103352"
       rx="21.739088"
       ry="3.5981665"
       inkscape:export-filename="C:\Users\Jeroe\Documents\TU Delft\BEP report\Resources\Figures\int-tech.png"
       inkscape:export-xdpi="200"
       inkscape:export-ydpi="200" />
    <path
       style="fill:none;stroke:#000000;stroke-width:0.26499999;stroke-linecap:butt;stroke-linejoin:miter;stroke-opacity:0.36000001;stroke-miterlimit:4;stroke-dasharray:0.52999997,0.26499999;stroke-dashoffset:0"
       d="M 71.750898,42.758516 V 19.844762"
       id="path94285"
       inkscape:export-filename="C:\Users\Jeroe\Documents\TU Delft\BEP report\Resources\Figures\int-tech.png"
       inkscape:export-xdpi="200"
       inkscape:export-ydpi="200" />
    <path
       style="fill:none;stroke:#000000;stroke-width:0.465;stroke-linecap:butt;stroke-linejoin:miter;stroke-opacity:0.40000001;stroke-miterlimit:4;stroke-dasharray:none;marker-end:url(#Arrow1Mend)"
       d="M 47.674201,43.103352 71.750898,42.758516"
       id="path94287"
       inkscape:export-filename="C:\Users\Jeroe\Documents\TU Delft\BEP report\Resources\Figures\int-tech.png"
       inkscape:export-xdpi="200"
       inkscape:export-ydpi="200" />
    <g
       inkscape:label=""
       transform="matrix(0.64288054,0,0,0.64288054,-39.523864,-37.131147)"
       id="g94745"
       inkscape:export-filename="C:\Users\Jeroe\Documents\TU Delft\BEP report\Resources\Figures\int-tech.png"
       inkscape:export-xdpi="200"
       inkscape:export-ydpi="200">
      <g
         id="g4085">
        <g
           style="fill:#000000;fill-opacity:1"
           id="g1923">
          <use
             xlink:href="#symbol8164"
             x="91.925003"
             y="81.962997"
             id="use39"
             width="100%"
             height="100%" />
        </g>
        <g
           style="fill:#000000;fill-opacity:1"
           id="g3863">
          <use
             xlink:href="#symbol4711"
             x="96.373001"
             y="83.457001"
             id="use1170"
             width="100%"
             height="100%" />
        </g>
      </g>
    </g>
    <g
       inkscape:label=""
       transform="matrix(0.64288054,0,0,0.64288054,-29.653412,-21.052997)"
       id="g94905"
       inkscape:export-filename="C:\Users\Jeroe\Documents\TU Delft\BEP report\Resources\Figures\int-tech.png"
       inkscape:export-xdpi="200"
       inkscape:export-ydpi="200">
      <g
         id="g1620">
        <g
           style="fill:#000000;fill-opacity:1"
           id="g5848">
          <use
             xlink:href="#symbol2116"
             x="91.925003"
             y="81.962997"
             id="use4180"
             width="100%"
             height="100%" />
        </g>
        <g
           style="fill:#000000;fill-opacity:1"
           id="g9175">
          <use
             xlink:href="#symbol1174"
             x="96.373001"
             y="83.457001"
             id="use614"
             width="100%"
             height="100%" />
        </g>
      </g>
    </g>
    <g
       inkscape:label=""
       transform="matrix(0.64288054,0,0,0.64288054,12.392932,-7.1012077)"
       id="g95080"
       inkscape:export-filename="C:\Users\Jeroe\Documents\TU Delft\BEP report\Resources\Figures\int-tech.png"
       inkscape:export-xdpi="200"
       inkscape:export-ydpi="200">
      <g
         id="g9386">
        <g
           style="fill:#000000;fill-opacity:1"
           id="g2483">
          <use
             xlink:href="#symbol8975"
             x="91.925003"
             y="81.962997"
             id="use972"
             width="100%"
             height="100%" />
        </g>
        <g
           style="fill:#000000;fill-opacity:1"
           id="g2560">
          <use
             xlink:href="#symbol6622"
             x="96.373001"
             y="83.457001"
             id="use6836"
             width="100%"
             height="100%" />
        </g>
      </g>
    </g>
    <ellipse
       style="fill:none;stroke:#000000;stroke-width:0.506592;stroke-miterlimit:4;stroke-dasharray:none;stroke-dashoffset:0;stroke-opacity:1"
       id="path95108"
       cx="71.7509"
       cy="20.099184"
       rx="0.61788303"
       ry="0.25442243"
       inkscape:export-filename="C:\Users\Jeroe\Documents\TU Delft\BEP report\Resources\Figures\int-tech.png"
       inkscape:export-xdpi="200"
       inkscape:export-ydpi="200" />
  </g>
</svg>
