<?xml version="1.0" encoding="UTF-8" standalone="no"?>
<svg
   xmlns:dc="http://purl.org/dc/elements/1.1/"
   xmlns:cc="http://creativecommons.org/ns#"
   xmlns:rdf="http://www.w3.org/1999/02/22-rdf-syntax-ns#"
   xmlns:svg="http://www.w3.org/2000/svg"
   xmlns="http://www.w3.org/2000/svg"
   xmlns:xlink="http://www.w3.org/1999/xlink"
   xmlns:sodipodi="http://sodipodi.sourceforge.net/DTD/sodipodi-0.dtd"
   xmlns:inkscape="http://www.inkscape.org/namespaces/inkscape"
   width="78.271957mm"
   height="61.852531mm"
   viewBox="0 0 78.271957 61.852531"
   version="1.1"
   id="svg8"
   inkscape:version="1.0.2-2 (e86c870879, 2021-01-15)"
   sodipodi:docname="unit-cell.svg"
   inkscape:export-filename="C:\Users\Jeroe\Documents\TU Delft\BEP report\Resources (Not for LaTeX)\unit-cell.png"
   inkscape:export-xdpi="200"
   inkscape:export-ydpi="200">
  <defs
     id="defs2">
    <marker
       style="overflow:visible"
       id="marker1677"
       refX="0"
       refY="0"
       orient="auto"
       inkscape:stockid="Arrow1Mend"
       inkscape:isstock="true">
      <path
         transform="matrix(-0.4,0,0,-0.4,-4,0)"
         style="fill:#000000;fill-opacity:1;fill-rule:evenodd;stroke:#000000;stroke-width:1pt;stroke-opacity:1"
         d="M 0,0 5,-5 -12.5,0 5,5 Z"
         id="path1675" />
    </marker>
    <marker
       style="overflow:visible"
       id="marker1635"
       refX="0"
       refY="0"
       orient="auto"
       inkscape:stockid="Arrow1Mend"
       inkscape:isstock="true">
      <path
         transform="matrix(-0.4,0,0,-0.4,-4,0)"
         style="fill:#000000;fill-opacity:1;fill-rule:evenodd;stroke:#000000;stroke-width:1pt;stroke-opacity:1"
         d="M 0,0 5,-5 -12.5,0 5,5 Z"
         id="path1633" />
    </marker>
    <marker
       style="overflow:visible"
       id="marker1199"
       refX="0"
       refY="0"
       orient="auto"
       inkscape:stockid="Arrow1Mend"
       inkscape:isstock="true">
      <path
         transform="matrix(-0.4,0,0,-0.4,-4,0)"
         style="fill:#000000;fill-opacity:1;fill-rule:evenodd;stroke:#000000;stroke-width:1pt;stroke-opacity:1"
         d="M 0,0 5,-5 -12.5,0 5,5 Z"
         id="path1197" />
    </marker>
    <marker
       style="overflow:visible"
       id="Arrow1Mend"
       refX="0"
       refY="0"
       orient="auto"
       inkscape:stockid="Arrow1Mend"
       inkscape:isstock="true">
      <path
         transform="matrix(-0.4,0,0,-0.4,-4,0)"
         style="fill:#000000;fill-opacity:1;fill-rule:evenodd;stroke:#000000;stroke-width:1pt;stroke-opacity:1"
         d="M 0,0 5,-5 -12.5,0 5,5 Z"
         id="path862" />
    </marker>
    <marker
       style="overflow:visible"
       id="Arrow1Mstart"
       refX="0"
       refY="0"
       orient="auto"
       inkscape:stockid="Arrow1Mstart"
       inkscape:isstock="true">
      <path
         transform="matrix(0.4,0,0,0.4,4,0)"
         style="fill:#000000;fill-opacity:1;fill-rule:evenodd;stroke:#000000;stroke-width:1pt;stroke-opacity:1"
         d="M 0,0 5,-5 -12.5,0 5,5 Z"
         id="path859" />
    </marker>
    <g
       id="g2112">
      <symbol
         overflow="visible"
         id="symbol7379">
        <path
           style="stroke:none"
           d=""
           id="path8164" />
      </symbol>
      <symbol
         overflow="visible"
         id="symbol2434">
        <path
           style="stroke:none"
           d="m 5.515625,-6.78125 h -5.1875 v 0.3125 H 0.5625 c 0.765625,0 0.796875,0.109375 0.796875,0.46875 v 5.21875 c 0,0.359375 -0.03125,0.46875 -0.796875,0.46875 H 0.328125 V 0 c 0.34375,-0.03125 1.125,-0.03125 1.515625,-0.03125 0.40625,0 1.3125,0 1.671875,0.03125 V -0.3125 H 3.1875 C 2.25,-0.3125 2.25,-0.4375 2.25,-0.78125 v -5.296875 c 0,-0.328125 0.015625,-0.390625 0.484375,-0.390625 h 1.03125 c 1.421875,0 1.625,0.59375 1.78125,1.9375 h 0.25 z m 0,0"
           id="path3029" />
      </symbol>
    </g>
    <g
       id="g3491">
      <symbol
         overflow="visible"
         id="symbol2457">
        <path
           style="stroke:none"
           d=""
           id="path2891" />
      </symbol>
      <symbol
         overflow="visible"
         id="symbol4601">
        <path
           style="stroke:none"
           d="M 9.234375,-6.046875 C 9.328125,-6.40625 9.34375,-6.5 10.09375,-6.5 c 0.21875,0 0.3125,0 0.3125,-0.203125 0,-0.109375 -0.09375,-0.109375 -0.265625,-0.109375 h -1.3125 c -0.265625,0 -0.28125,0 -0.390625,0.1875 L 4.796875,-0.9375 4.015625,-6.578125 C 3.984375,-6.8125 3.96875,-6.8125 3.703125,-6.8125 H 2.34375 c -0.1875,0 -0.296875,0 -0.296875,0.1875 0,0.125 0.09375,0.125 0.28125,0.125 0.140625,0 0.3125,0.015625 0.4375,0.015625 0.15625,0.03125 0.21875,0.046875 0.21875,0.171875 0,0.03125 -0.015625,0.0625 -0.046875,0.1875 l -1.265625,5.0625 c -0.09375,0.40625 -0.265625,0.71875 -1.078125,0.75 -0.046875,0 -0.171875,0.015625 -0.171875,0.1875 0,0.09375 0.0625,0.125 0.140625,0.125 0.3125,0 0.65625,-0.03125 1,-0.03125 C 1.890625,-0.03125 2.25,0 2.578125,0 c 0.046875,0 0.1875,0 0.1875,-0.203125 0,-0.109375 -0.109375,-0.109375 -0.1875,-0.109375 -0.5625,0 -0.671875,-0.203125 -0.671875,-0.4375 0,-0.0625 0,-0.125 0.03125,-0.234375 L 3.296875,-6.40625 H 3.3125 l 0.859375,6.171875 C 4.1875,-0.109375 4.203125,0 4.3125,0 4.421875,0 4.484375,-0.109375 4.53125,-0.171875 l 4.03125,-6.3125 h 0.015625 l -1.4375,5.703125 c -0.09375,0.390625 -0.109375,0.46875 -0.90625,0.46875 -0.15625,0 -0.265625,0 -0.265625,0.1875 C 5.96875,0 6.078125,0 6.109375,0 6.390625,0 7.0625,-0.03125 7.34375,-0.03125 7.75,-0.03125 8.1875,0 8.59375,0 8.65625,0 8.78125,0 8.78125,-0.203125 8.78125,-0.3125 8.6875,-0.3125 8.5,-0.3125 c -0.359375,0 -0.640625,0 -0.640625,-0.171875 0,-0.046875 0,-0.0625 0.046875,-0.25 z m 0,0"
           id="path6130" />
      </symbol>
    </g>
    <g
       id="g2776">
      <symbol
         overflow="visible"
         id="symbol8252">
        <path
           style="stroke:none"
           d=""
           id="path7194" />
      </symbol>
      <symbol
         overflow="visible"
         id="symbol7705">
        <path
           style="stroke:none"
           d="M 5.078125,-4.03125 C 5.0625,-4.0625 5.03125,-4.140625 5.03125,-4.171875 c 0,0 0.171875,-0.140625 0.28125,-0.21875 l 1.75,-1.34375 C 8,-6.4375 8.390625,-6.46875 8.6875,-6.5 8.765625,-6.515625 8.859375,-6.515625 8.859375,-6.703125 8.859375,-6.734375 8.828125,-6.8125 8.75,-6.8125 c -0.21875,0 -0.46875,0.03125 -0.703125,0.03125 -0.359375,0 -0.75,-0.03125 -1.109375,-0.03125 -0.0625,0 -0.1875,0 -0.1875,0.203125 0,0.0625 0.046875,0.09375 0.125,0.109375 0.21875,0.015625 0.296875,0.0625 0.296875,0.203125 0,0.1875 -0.296875,0.421875 -0.359375,0.46875 L 2.9375,-2.84375 3.734375,-6.046875 C 3.8125,-6.40625 3.84375,-6.5 4.5625,-6.5 c 0.25,0 0.34375,0 0.34375,-0.203125 0,-0.078125 -0.078125,-0.109375 -0.140625,-0.109375 -0.28125,0 -1,0.03125 -1.28125,0.03125 C 3.203125,-6.78125 2.5,-6.8125 2.203125,-6.8125 2.140625,-6.8125 2,-6.8125 2,-6.625 2,-6.5 2.09375,-6.5 2.296875,-6.5 c 0.125,0 0.3125,0.015625 0.421875,0.015625 0.15625,0.03125 0.21875,0.046875 0.21875,0.171875 0,0.03125 0,0.0625 -0.03125,0.1875 L 1.5625,-0.78125 c -0.09375,0.390625 -0.109375,0.46875 -0.90625,0.46875 -0.171875,0 -0.28125,0 -0.28125,0.1875 C 0.375,0 0.5,0 0.53125,0 0.8125,0 1.515625,-0.03125 1.796875,-0.03125 2,-0.03125 2.21875,-0.015625 2.4375,-0.015625 2.65625,-0.015625 2.875,0 3.078125,0 3.15625,0 3.28125,0 3.28125,-0.203125 3.28125,-0.3125 3.1875,-0.3125 3,-0.3125 c -0.375,0 -0.640625,0 -0.640625,-0.171875 0,-0.078125 0.046875,-0.296875 0.078125,-0.4375 C 2.578125,-1.453125 2.71875,-1.96875 2.84375,-2.5 l 1.484375,-1.15625 1.15625,2.6875 c 0.125,0.265625 0.125,0.296875 0.125,0.34375 0,0.3125 -0.4375,0.3125 -0.53125,0.3125 -0.109375,0 -0.21875,0 -0.21875,0.203125 C 4.859375,0 4.984375,0 5,0 5.40625,0 5.828125,-0.03125 6.21875,-0.03125 6.4375,-0.03125 6.984375,0 7.203125,0 7.25,0 7.375,0 7.375,-0.203125 7.375,-0.3125 7.265625,-0.3125 7.171875,-0.3125 c -0.40625,0 -0.53125,-0.09375 -0.6875,-0.4375 z m 0,0"
           id="path7291" />
      </symbol>
    </g>
    <g
       id="g1349">
      <symbol
         overflow="visible"
         id="symbol3532">
        <path
           style="stroke:none"
           d=""
           id="path8709" />
      </symbol>
      <symbol
         overflow="visible"
         id="symbol3512">
        <path
           style="stroke:none"
           d="m 5.359375,-5.9375 c -0.140625,0.140625 -0.46875,0.421875 -0.46875,0.59375 0,0.09375 0.09375,0.203125 0.1875,0.203125 0.09375,0 0.140625,-0.078125 0.203125,-0.140625 C 5.390625,-5.421875 5.625,-5.703125 6.0625,-5.921875 6.125,-5.96875 6.234375,-6.015625 6.234375,-6.125 6.234375,-6.234375 6.15625,-6.28125 6.09375,-6.328125 5.875,-6.484375 5.765625,-6.65625 5.6875,-6.890625 5.65625,-6.984375 5.625,-7.125 5.484375,-7.125 c -0.140625,0 -0.203125,0.140625 -0.203125,0.21875 0,0.046875 0.078125,0.359375 0.234375,0.578125 H 2.15625 c -0.15625,0 -0.34375,0 -0.34375,0.203125 0,0.1875 0.1875,0.1875 0.34375,0.1875 z m 0,0"
           id="path9232" />
      </symbol>
      <symbol
         overflow="visible"
         id="symbol5115">
        <path
           style="stroke:none"
           d="m 2.375,-6.8125 c 0,0 0,-0.109375 -0.125,-0.109375 -0.21875,0 -0.953125,0.078125 -1.21875,0.109375 -0.078125,0 -0.1875,0.015625 -0.1875,0.1875 0,0.125 0.09375,0.125 0.25,0.125 0.46875,0 0.484375,0.0625 0.484375,0.171875 0,0.0625 -0.078125,0.40625 -0.125,0.609375 l -0.828125,3.25 c -0.109375,0.5 -0.15625,0.671875 -0.15625,1.015625 0,0.9375 0.53125,1.5625 1.265625,1.5625 1.171875,0 2.40625,-1.484375 2.40625,-2.921875 0,-0.90625 -0.53125,-1.59375 -1.328125,-1.59375 -0.453125,0 -0.875,0.296875 -1.171875,0.59375 z M 1.453125,-3.046875 C 1.5,-3.265625 1.5,-3.28125 1.59375,-3.390625 2.078125,-4.03125 2.53125,-4.1875 2.796875,-4.1875 c 0.359375,0 0.625,0.296875 0.625,0.9375 0,0.59375 -0.328125,1.734375 -0.515625,2.109375 -0.328125,0.671875 -0.78125,1.03125 -1.171875,1.03125 -0.34375,0 -0.671875,-0.265625 -0.671875,-1 0,-0.203125 0,-0.390625 0.15625,-1.015625 z m 0,0"
           id="path5248" />
      </symbol>
      <symbol
         overflow="visible"
         id="symbol4132">
        <path
           style="stroke:none"
           d=""
           id="path9182" />
      </symbol>
      <symbol
         overflow="visible"
         id="symbol7878">
        <path
           style="stroke:none"
           d="m 2.328125,-4.4375 c 0,-0.1875 0,-0.1875 -0.203125,-0.1875 -0.453125,0.4375 -1.078125,0.4375 -1.359375,0.4375 v 0.25 c 0.15625,0 0.625,0 1,-0.1875 v 3.546875 c 0,0.234375 0,0.328125 -0.6875,0.328125 H 0.8125 V 0 c 0.125,0 0.984375,-0.03125 1.234375,-0.03125 0.21875,0 1.09375,0.03125 1.25,0.03125 V -0.25 H 3.03125 c -0.703125,0 -0.703125,-0.09375 -0.703125,-0.328125 z m 0,0"
           id="path3540" />
      </symbol>
    </g>
    <g
       id="g1054">
      <symbol
         overflow="visible"
         id="symbol6988">
        <path
           style="stroke:none"
           d=""
           id="path4910" />
      </symbol>
      <symbol
         overflow="visible"
         id="symbol3816">
        <path
           style="stroke:none"
           d="m 5.359375,-5.9375 c -0.140625,0.140625 -0.46875,0.421875 -0.46875,0.59375 0,0.09375 0.09375,0.203125 0.1875,0.203125 0.09375,0 0.140625,-0.078125 0.203125,-0.140625 C 5.390625,-5.421875 5.625,-5.703125 6.0625,-5.921875 6.125,-5.96875 6.234375,-6.015625 6.234375,-6.125 6.234375,-6.234375 6.15625,-6.28125 6.09375,-6.328125 5.875,-6.484375 5.765625,-6.65625 5.6875,-6.890625 5.65625,-6.984375 5.625,-7.125 5.484375,-7.125 c -0.140625,0 -0.203125,0.140625 -0.203125,0.21875 0,0.046875 0.078125,0.359375 0.234375,0.578125 H 2.15625 c -0.15625,0 -0.34375,0 -0.34375,0.203125 0,0.1875 0.1875,0.1875 0.34375,0.1875 z m 0,0"
           id="path4156" />
      </symbol>
      <symbol
         overflow="visible"
         id="symbol2692">
        <path
           style="stroke:none"
           d="m 2.375,-6.8125 c 0,0 0,-0.109375 -0.125,-0.109375 -0.21875,0 -0.953125,0.078125 -1.21875,0.109375 -0.078125,0 -0.1875,0.015625 -0.1875,0.1875 0,0.125 0.09375,0.125 0.25,0.125 0.46875,0 0.484375,0.0625 0.484375,0.171875 0,0.0625 -0.078125,0.40625 -0.125,0.609375 l -0.828125,3.25 c -0.109375,0.5 -0.15625,0.671875 -0.15625,1.015625 0,0.9375 0.53125,1.5625 1.265625,1.5625 1.171875,0 2.40625,-1.484375 2.40625,-2.921875 0,-0.90625 -0.53125,-1.59375 -1.328125,-1.59375 -0.453125,0 -0.875,0.296875 -1.171875,0.59375 z M 1.453125,-3.046875 C 1.5,-3.265625 1.5,-3.28125 1.59375,-3.390625 2.078125,-4.03125 2.53125,-4.1875 2.796875,-4.1875 c 0.359375,0 0.625,0.296875 0.625,0.9375 0,0.59375 -0.328125,1.734375 -0.515625,2.109375 -0.328125,0.671875 -0.78125,1.03125 -1.171875,1.03125 -0.34375,0 -0.671875,-0.265625 -0.671875,-1 0,-0.203125 0,-0.390625 0.15625,-1.015625 z m 0,0"
           id="path9460" />
      </symbol>
      <symbol
         overflow="visible"
         id="symbol6370">
        <path
           style="stroke:none"
           d=""
           id="path2992" />
      </symbol>
      <symbol
         overflow="visible"
         id="symbol5344">
        <path
           style="stroke:none"
           d="M 3.515625,-1.265625 H 3.28125 c -0.015625,0.15625 -0.09375,0.5625 -0.1875,0.625 C 3.046875,-0.59375 2.515625,-0.59375 2.40625,-0.59375 H 1.125 c 0.734375,-0.640625 0.984375,-0.84375 1.390625,-1.171875 0.515625,-0.40625 1,-0.84375 1,-1.5 0,-0.84375 -0.734375,-1.359375 -1.625,-1.359375 -0.859375,0 -1.453125,0.609375 -1.453125,1.25 0,0.34375 0.296875,0.390625 0.375,0.390625 0.15625,0 0.359375,-0.125 0.359375,-0.375 0,-0.125 -0.046875,-0.375 -0.40625,-0.375 C 0.984375,-4.21875 1.453125,-4.375 1.78125,-4.375 c 0.703125,0 1.0625,0.546875 1.0625,1.109375 0,0.609375 -0.4375,1.078125 -0.65625,1.328125 L 0.515625,-0.265625 C 0.4375,-0.203125 0.4375,-0.1875 0.4375,0 h 2.875 z m 0,0"
           id="path8925" />
      </symbol>
    </g>
    <g
       id="g7974">
      <symbol
         overflow="visible"
         id="symbol9557">
        <path
           style="stroke:none"
           d=""
           id="path2804" />
      </symbol>
      <symbol
         overflow="visible"
         id="symbol9004">
        <path
           style="stroke:none"
           d="m 2.859375,-6.8125 c 0,0 0,-0.109375 -0.125,-0.109375 -0.234375,0 -0.953125,0.078125 -1.21875,0.109375 -0.078125,0 -0.1875,0.015625 -0.1875,0.1875 0,0.125 0.09375,0.125 0.234375,0.125 0.484375,0 0.5,0.0625 0.5,0.171875 L 2.03125,-6.125 0.59375,-0.390625 c -0.046875,0.140625 -0.046875,0.15625 -0.046875,0.21875 0,0.234375 0.203125,0.28125 0.296875,0.28125 0.125,0 0.265625,-0.09375 0.328125,-0.203125 0.046875,-0.09375 0.5,-1.9375 0.5625,-2.1875 0.34375,0.03125 1.15625,0.1875 1.15625,0.84375 0,0.078125 0,0.109375 -0.03125,0.21875 -0.015625,0.109375 -0.03125,0.234375 -0.03125,0.34375 0,0.578125 0.390625,0.984375 0.90625,0.984375 0.296875,0 0.578125,-0.15625 0.796875,-0.53125 0.25,-0.4375 0.359375,-0.984375 0.359375,-1 0,-0.109375 -0.09375,-0.109375 -0.125,-0.109375 -0.09375,0 -0.109375,0.046875 -0.140625,0.1875 -0.203125,0.71875 -0.421875,1.234375 -0.859375,1.234375 -0.203125,0 -0.328125,-0.109375 -0.328125,-0.46875 0,-0.171875 0.046875,-0.40625 0.078125,-0.5625 C 3.5625,-1.3125 3.5625,-1.34375 3.5625,-1.453125 3.5625,-2.09375 2.9375,-2.375 2.078125,-2.5 2.390625,-2.671875 2.71875,-2.984375 2.9375,-3.234375 3.421875,-3.765625 3.875,-4.1875 4.359375,-4.1875 c 0.0625,0 0.078125,0 0.09375,0.015625 0.125,0.015625 0.125,0.015625 0.21875,0.078125 0.015625,0 0.015625,0.015625 0.03125,0.03125 -0.46875,0.03125 -0.5625,0.421875 -0.5625,0.546875 0,0.15625 0.109375,0.34375 0.375,0.34375 0.265625,0 0.546875,-0.21875 0.546875,-0.609375 0,-0.296875 -0.234375,-0.625 -0.671875,-0.625 -0.28125,0 -0.734375,0.078125 -1.453125,0.875 -0.34375,0.375 -0.734375,0.78125 -1.109375,0.921875 z m 0,0"
           id="path5509" />
      </symbol>
      <symbol
         overflow="visible"
         id="symbol3217">
        <path
           style="stroke:none"
           d=""
           id="path4441" />
      </symbol>
      <symbol
         overflow="visible"
         id="symbol6588">
        <path
           style="stroke:none"
           d="M 1.734375,-0.734375 C 1.671875,-0.5 1.4375,-0.125 1.078125,-0.125 c -0.015625,0 -0.234375,0 -0.375,-0.09375 0.28125,-0.09375 0.3125,-0.34375 0.3125,-0.390625 0,-0.15625 -0.125,-0.25 -0.28125,-0.25 -0.203125,0 -0.40625,0.15625 -0.40625,0.421875 0,0.34375 0.390625,0.5 0.734375,0.5 0.328125,0 0.609375,-0.1875 0.78125,-0.484375 C 2.015625,-0.0625 2.390625,0.0625 2.671875,0.0625 c 0.8125,0 1.234375,-0.859375 1.234375,-1.0625 0,-0.09375 -0.09375,-0.09375 -0.109375,-0.09375 -0.109375,0 -0.109375,0.046875 -0.140625,0.125 -0.140625,0.484375 -0.5625,0.84375 -0.953125,0.84375 -0.28125,0 -0.421875,-0.1875 -0.421875,-0.453125 0,-0.1875 0.171875,-0.8125 0.359375,-1.59375 C 2.78125,-2.703125 3.09375,-2.875 3.328125,-2.875 c 0.015625,0 0.21875,0 0.375,0.09375 -0.21875,0.0625 -0.3125,0.265625 -0.3125,0.390625 0,0.140625 0.125,0.25 0.28125,0.25 0.15625,0 0.390625,-0.125 0.390625,-0.421875 0,-0.390625 -0.453125,-0.515625 -0.71875,-0.515625 -0.359375,0 -0.640625,0.234375 -0.78125,0.5 -0.125,-0.28125 -0.453125,-0.5 -0.84375,-0.5 C 0.9375,-3.078125 0.5,-2.21875 0.5,-2 c 0,0.078125 0.09375,0.078125 0.109375,0.078125 0.09375,0 0.09375,-0.015625 0.140625,-0.109375 C 0.921875,-2.578125 1.359375,-2.875 1.703125,-2.875 1.9375,-2.875 2.125,-2.75 2.125,-2.421875 2.125,-2.28125 2.03125,-1.9375 1.96875,-1.6875 Z m 0,0"
           id="path8456" />
      </symbol>
    </g>
    <g
       id="g738">
      <symbol
         overflow="visible"
         id="symbol3283">
        <path
           style="stroke:none"
           d=""
           id="path4530" />
      </symbol>
      <symbol
         overflow="visible"
         id="symbol581">
        <path
           style="stroke:none"
           d="m 2.859375,-6.8125 c 0,0 0,-0.109375 -0.125,-0.109375 -0.234375,0 -0.953125,0.078125 -1.21875,0.109375 -0.078125,0 -0.1875,0.015625 -0.1875,0.1875 0,0.125 0.09375,0.125 0.234375,0.125 0.484375,0 0.5,0.0625 0.5,0.171875 L 2.03125,-6.125 0.59375,-0.390625 c -0.046875,0.140625 -0.046875,0.15625 -0.046875,0.21875 0,0.234375 0.203125,0.28125 0.296875,0.28125 0.125,0 0.265625,-0.09375 0.328125,-0.203125 0.046875,-0.09375 0.5,-1.9375 0.5625,-2.1875 0.34375,0.03125 1.15625,0.1875 1.15625,0.84375 0,0.078125 0,0.109375 -0.03125,0.21875 -0.015625,0.109375 -0.03125,0.234375 -0.03125,0.34375 0,0.578125 0.390625,0.984375 0.90625,0.984375 0.296875,0 0.578125,-0.15625 0.796875,-0.53125 0.25,-0.4375 0.359375,-0.984375 0.359375,-1 0,-0.109375 -0.09375,-0.109375 -0.125,-0.109375 -0.09375,0 -0.109375,0.046875 -0.140625,0.1875 -0.203125,0.71875 -0.421875,1.234375 -0.859375,1.234375 -0.203125,0 -0.328125,-0.109375 -0.328125,-0.46875 0,-0.171875 0.046875,-0.40625 0.078125,-0.5625 C 3.5625,-1.3125 3.5625,-1.34375 3.5625,-1.453125 3.5625,-2.09375 2.9375,-2.375 2.078125,-2.5 2.390625,-2.671875 2.71875,-2.984375 2.9375,-3.234375 3.421875,-3.765625 3.875,-4.1875 4.359375,-4.1875 c 0.0625,0 0.078125,0 0.09375,0.015625 0.125,0.015625 0.125,0.015625 0.21875,0.078125 0.015625,0 0.015625,0.015625 0.03125,0.03125 -0.46875,0.03125 -0.5625,0.421875 -0.5625,0.546875 0,0.15625 0.109375,0.34375 0.375,0.34375 0.265625,0 0.546875,-0.21875 0.546875,-0.609375 0,-0.296875 -0.234375,-0.625 -0.671875,-0.625 -0.28125,0 -0.734375,0.078125 -1.453125,0.875 -0.34375,0.375 -0.734375,0.78125 -1.109375,0.921875 z m 0,0"
           id="path7003" />
      </symbol>
      <symbol
         overflow="visible"
         id="symbol1256">
        <path
           style="stroke:none"
           d=""
           id="path2680" />
      </symbol>
      <symbol
         overflow="visible"
         id="symbol2303">
        <path
           style="stroke:none"
           d="M 3.875,-2.625 C 3.90625,-2.71875 3.90625,-2.734375 3.90625,-2.78125 3.90625,-2.921875 3.796875,-3 3.671875,-3 3.59375,-3 3.46875,-2.96875 3.390625,-2.84375 3.359375,-2.796875 3.3125,-2.578125 3.28125,-2.4375 L 3.125,-1.859375 c -0.03125,0.171875 -0.25,1.046875 -0.28125,1.125 0,0 -0.3125,0.609375 -0.84375,0.609375 -0.484375,0 -0.484375,-0.453125 -0.484375,-0.578125 0,-0.375 0.15625,-0.8125 0.375,-1.359375 C 1.96875,-2.28125 2,-2.359375 2,-2.484375 2,-2.8125 1.71875,-3.078125 1.34375,-3.078125 0.640625,-3.078125 0.328125,-2.125 0.328125,-2 c 0,0.078125 0.09375,0.078125 0.125,0.078125 0.09375,0 0.09375,-0.03125 0.125,-0.109375 C 0.75,-2.609375 1.046875,-2.875 1.328125,-2.875 1.4375,-2.875 1.5,-2.796875 1.5,-2.640625 c 0,0.171875 -0.0625,0.3125 -0.09375,0.40625 C 1.0625,-1.375 1,-1.125 1,-0.8125 1,-0.703125 1,-0.375 1.265625,-0.140625 1.484375,0.03125 1.78125,0.0625 1.96875,0.0625 2.25,0.0625 2.5,-0.03125 2.71875,-0.25 2.640625,0.140625 2.5625,0.4375 2.265625,0.78125 2.078125,1 1.796875,1.21875 1.421875,1.21875 c -0.046875,0 -0.375,0 -0.515625,-0.21875 0.375,-0.046875 0.375,-0.375 0.375,-0.390625 0,-0.21875 -0.203125,-0.265625 -0.265625,-0.265625 -0.171875,0 -0.40625,0.140625 -0.40625,0.46875 0,0.34375 0.328125,0.609375 0.828125,0.609375 C 2.140625,1.421875 3,0.875 3.21875,0 Z m 0,0"
           id="path7936" />
      </symbol>
    </g>
  </defs>
  <sodipodi:namedview
     id="base"
     pagecolor="#ffffff"
     bordercolor="#666666"
     borderopacity="1.0"
     inkscape:pageopacity="0.0"
     inkscape:pageshadow="2"
     inkscape:zoom="5.6"
     inkscape:cx="174.1434"
     inkscape:cy="103.70729"
     inkscape:document-units="mm"
     inkscape:current-layer="layer3"
     inkscape:document-rotation="0"
     showgrid="false"
     inkscape:window-width="3806"
     inkscape:window-height="2036"
     inkscape:window-x="3846"
     inkscape:window-y="16"
     inkscape:window-maximized="0"
     inkscape:snap-intersection-paths="true"
     inkscape:snap-bbox="true"
     inkscape:snap-bbox-midpoints="true"
     inkscape:snap-bbox-edge-midpoints="true"
     inkscape:bbox-nodes="true"
     inkscape:bbox-paths="true"
     inkscape:snap-object-midpoints="true" />
  <metadata
     id="metadata5">
    <rdf:RDF>
      <cc:Work
         rdf:about="">
        <dc:format>image/svg+xml</dc:format>
        <dc:type
           rdf:resource="http://purl.org/dc/dcmitype/StillImage" />
        <dc:title />
      </cc:Work>
    </rdf:RDF>
  </metadata>
  <g
     inkscape:label="Layer 1"
     inkscape:groupmode="layer"
     id="layer1"
     transform="translate(-102.30098,-20.04183)">
    <path
       sodipodi:type="star"
       style="fill:#b2b2b2;fill-opacity:1;stroke:#000000;stroke-width:0.265;stroke-miterlimit:4;stroke-dasharray:none;stroke-dashoffset:0"
       id="path833"
       sodipodi:sides="6"
       sodipodi:cx="69.089172"
       sodipodi:cy="59.467468"
       sodipodi:r1="33.461166"
       sodipodi:r2="28.978222"
       sodipodi:arg1="0.52359878"
       sodipodi:arg2="1.0471976"
       inkscape:flatsided="true"
       inkscape:rounded="0"
       inkscape:randomized="0"
       d="m 98.067392,76.198052 -28.97822,16.730583 -28.97822,-16.730584 0,-33.461166 28.978221,-16.730583 28.97822,16.730583 z"
       transform="matrix(1,0,0.29021509,0.49051274,59.982537,35.987)" />
    <path
       sodipodi:type="star"
       style="fill:#b2b2b2;fill-opacity:1;stroke:#000000;stroke-width:0.265;stroke-miterlimit:4;stroke-dasharray:none;stroke-dashoffset:0"
       id="path836"
       sodipodi:sides="6"
       sodipodi:cx="69.089172"
       sodipodi:cy="59.467468"
       sodipodi:r1="33.461166"
       sodipodi:r2="28.978222"
       sodipodi:arg1="0.52359878"
       sodipodi:arg2="1.0471976"
       inkscape:flatsided="true"
       inkscape:rounded="0"
       inkscape:randomized="0"
       d="m 98.067392,76.198052 -28.97822,16.730583 -28.97822,-16.730584 0,-33.461166 28.978221,-16.730583 28.97822,16.730583 z"
       transform="matrix(1,0,0.29021509,0.49051274,59.982537,14.471803)" />
    <rect
       style="fill:#8c8c8c;fill-opacity:1;fill-rule:evenodd;stroke-width:0.138045"
       id="rect838"
       width="19.531706"
       height="21.221275"
       x="226.26506"
       y="-161.12193"
       transform="matrix(0.4971883,0.86764266,-2.5572269e-7,1,0,0)" />
    <rect
       style="fill:#999999;fill-opacity:1;fill-rule:evenodd;stroke-width:0.187803"
       id="rect840"
       width="34.46199"
       height="21.626844"
       x="125.76282"
       y="22.155155"
       transform="matrix(0.97172845,0.23610127,0,1,0,0)" />
    <rect
       style="fill:#a6a6a6;fill-opacity:1;fill-rule:evenodd;stroke-width:0.175813"
       id="rect842"
       width="25.843304"
       height="21.64883"
       x="164.38228"
       y="111.75301"
       transform="matrix(0.94925687,-0.31450183,0,1,0,0)" />
  </g>
  <g
     inkscape:groupmode="layer"
     id="layer2"
     inkscape:label="Layer 2"
     transform="translate(-102.30098,-20.04183)" />
  <g
     inkscape:groupmode="layer"
     id="layer3"
     inkscape:label="Layer 3"
     transform="translate(-102.30098,-20.04183)">
    <path
       style="fill:none;stroke:#000000;stroke-width:0.465;stroke-linecap:butt;stroke-linejoin:miter;stroke-miterlimit:4;stroke-dasharray:none;stroke-opacity:1"
       d="m 112.49638,35.195285 24.12275,-7.967059 33.83369,8.206562 9.71093,16.413131 V 73.363115 L 156.041,81.569678 V 60.054481 l 24.12275,-8.206562 -24.12275,8.206562 -33.83369,-8.206565 v 21.62684 l 33.83369,8.094922 -33.83369,-8.094922 -9.71093,-16.524771 v -21.7547 l 9.71094,16.946543"
       id="path845" />
    <path
       style="fill:none;stroke:#000000;stroke-width:0.264583px;stroke-linecap:butt;stroke-linejoin:miter;stroke-opacity:1"
       d="M 156.041,60.054487 V 81.703311"
       id="path847" />
    <path
       style="fill:none;stroke:#000000;stroke-width:0.465;stroke-linecap:butt;stroke-linejoin:miter;stroke-miterlimit:4;stroke-dasharray:none;stroke-opacity:1"
       d="m 156.041,70.878898 12.26597,-4.063884 0.0895,-10.822048"
       id="path1135" />
    <path
       style="fill:none;stroke:#000000;stroke-width:0.465;stroke-linecap:butt;stroke-linejoin:miter;stroke-miterlimit:4;stroke-dasharray:none;stroke-opacity:1"
       d="M 156.041,60.054487 146.33007,43.641354"
       id="path1137"
       sodipodi:nodetypes="cc" />
    <path
       style="fill:none;stroke:#000000;stroke-width:0.465;stroke-linecap:butt;stroke-linejoin:miter;stroke-miterlimit:4;stroke-dasharray:none;stroke-opacity:1"
       d="m 146.33006,43.641356 22.06641,12.35161"
       id="path1139" />
    <path
       style="fill:none;stroke:#000000;stroke-width:0.264583;stroke-linecap:butt;stroke-linejoin:miter;stroke-miterlimit:4;stroke-dasharray:0.264583, 1.05833;stroke-dashoffset:0;stroke-opacity:1"
       d="m 156.041,70.878895 -9.71093,-16.438412 1e-5,-10.799119 -1e-5,10.799119 c 0,0 21.9769,12.374531 21.9769,12.374531"
       id="path1141" />
    <path
       style="fill:none;stroke:#000000;stroke-width:0.465;stroke-linecap:butt;stroke-linejoin:miter;stroke-miterlimit:4;stroke-dasharray:none;stroke-opacity:1;marker-end:url(#Arrow1Mend)"
       d="m 168.30697,66.815014 v 0 l 5.12178,2.957057"
       id="path1145"
       sodipodi:nodetypes="ccc" />
    <path
       style="fill:none;stroke:#000000;stroke-width:0.265;stroke-linecap:butt;stroke-linejoin:miter;stroke-miterlimit:4;stroke-dasharray:0.265, 0.53;stroke-dashoffset:0;stroke-opacity:1"
       d="m 146.33007,54.440483 -7.37892,12.289113 -2.54288,4.4044"
       id="path1193" />
    <path
       style="fill:none;stroke:#000000;stroke-width:0.465;stroke-linecap:butt;stroke-linejoin:miter;stroke-miterlimit:4;stroke-dasharray:none;stroke-opacity:1;marker-end:url(#marker1199)"
       d="m 138.95115,66.729596 -2.54288,4.4044"
       id="path1195" />
    <g
       inkscape:label=""
       transform="matrix(0.60879194,0,0,0.60879194,196.76966,25.18366)"
       id="g1264">
      <g
         id="g2225"
         transform="translate(-183.22396,-34.017857)">
        <g
           style="fill:#000000;fill-opacity:1"
           id="g3022">
          <use
             xlink:href="#symbol2434"
             x="91.925003"
             y="81.962997"
             id="use7992"
             width="100%"
             height="100%" />
        </g>
      </g>
    </g>
    <g
       inkscape:label=""
       transform="matrix(0.60879194,0,0,0.60879194,106.07839,23.274886)"
       id="g1325">
      <g
         id="g9490">
        <g
           style="fill:#000000;fill-opacity:1"
           id="g9671">
          <use
             xlink:href="#symbol4601"
             x="91.925003"
             y="81.962997"
             id="use1010"
             width="100%"
             height="100%" />
        </g>
      </g>
    </g>
    <g
       inkscape:label=""
       transform="matrix(0.60879194,0,0,0.60879194,92.756604,25.195165)"
       id="g1395">
      <g
         id="g869">
        <g
           style="fill:#000000;fill-opacity:1"
           id="g6391">
          <use
             xlink:href="#symbol7705"
             x="91.925003"
             y="81.962997"
             id="use175"
             width="100%"
             height="100%" />
        </g>
      </g>
    </g>
    <g
       inkscape:label=""
       transform="matrix(0.60879194,0,0,0.60879194,73.229933,20.945432)"
       id="g1484">
      <g
         id="g7044">
        <g
           style="fill:#000000;fill-opacity:1"
           id="g2491">
          <use
             xlink:href="#symbol3512"
             x="93.041"
             y="79.334"
             id="use4009"
             width="100%"
             height="100%" />
        </g>
        <g
           style="fill:#000000;fill-opacity:1"
           id="g8905">
          <use
             xlink:href="#symbol5115"
             x="91.925003"
             y="81.962997"
             id="use6910"
             width="100%"
             height="100%" />
        </g>
        <g
           style="fill:#000000;fill-opacity:1"
           id="g3119">
          <use
             xlink:href="#symbol7878"
             x="96.200996"
             y="83.457001"
             id="use6175"
             width="100%"
             height="100%" />
        </g>
      </g>
    </g>
    <g
       inkscape:label=""
       transform="matrix(0.60879194,0,0,0.60879194,117.97378,19.422305)"
       id="g1602">
      <g
         id="g5652">
        <g
           style="fill:#000000;fill-opacity:1"
           id="g9362">
          <use
             xlink:href="#symbol3816"
             x="93.041"
             y="79.334"
             id="use5033"
             width="100%"
             height="100%" />
        </g>
        <g
           style="fill:#000000;fill-opacity:1"
           id="g3334">
          <use
             xlink:href="#symbol2692"
             x="91.925003"
             y="81.962997"
             id="use7798"
             width="100%"
             height="100%" />
        </g>
        <g
           style="fill:#000000;fill-opacity:1"
           id="g7116">
          <use
             xlink:href="#symbol5344"
             x="96.200996"
             y="83.457001"
             id="use7557"
             width="100%"
             height="100%" />
        </g>
      </g>
    </g>
    <path
       style="fill:none;stroke:#000000;stroke-width:0.381;stroke-linecap:butt;stroke-linejoin:miter;stroke-miterlimit:4;stroke-dasharray:none;stroke-opacity:1;marker-end:url(#marker1635)"
       d="m 102.46596,26.986609 h 22.78338"
       id="path1631" />
    <path
       style="fill:none;stroke:#000000;stroke-width:0.381;stroke-linecap:butt;stroke-linejoin:miter;stroke-miterlimit:4;stroke-dasharray:none;stroke-opacity:1;marker-end:url(#marker1677)"
       d="m 102.46596,26.986609 4.82328,8.354157 1.95539,3.386845"
       id="path1673" />
    <g
       inkscape:label=""
       transform="matrix(0.60759535,0,0,0.60759535,50.790725,-6.2167884)"
       id="g1915">
      <g
         id="g5021">
        <g
           style="fill:#000000;fill-opacity:1"
           id="g6960">
          <use
             xlink:href="#symbol9004"
             x="91.925003"
             y="81.962997"
             id="use7679"
             width="100%"
             height="100%" />
        </g>
        <g
           style="fill:#000000;fill-opacity:1"
           id="g9227">
          <use
             xlink:href="#symbol6588"
             x="97.112"
             y="83.457001"
             id="use4418"
             width="100%"
             height="100%" />
        </g>
      </g>
    </g>
    <g
       inkscape:label=""
       transform="matrix(0.60759535,0,0,0.60759535,64.621947,-25.552807)"
       id="g2059">
      <g
         id="g8120">
        <g
           style="fill:#000000;fill-opacity:1"
           id="g4771">
          <use
             xlink:href="#symbol581"
             x="91.925003"
             y="81.962997"
             id="use736"
             width="100%"
             height="100%" />
        </g>
        <g
           style="fill:#000000;fill-opacity:1"
           id="g1396">
          <use
             xlink:href="#symbol2303"
             x="97.112"
             y="83.457001"
             id="use7318"
             width="100%"
             height="100%" />
        </g>
      </g>
    </g>
  </g>
</svg>
